<svg xmlns="http://www.w3.org/2000/svg" viewBox="0 0 5348 7213" preserveAspectRatio="xMidYMid meet">
<g id="lines" fill="none" stroke-linecap="round" stroke-linejoin="round">
<g data-line="1" stroke="#e20229" stroke-width="16">
<path d="M1626.5,4151.0 L2049.6,3728.9 C2059.8,3718.7 2065.5,3704.9 2065.5,3690.5 L2065.5,3521.5 C2065.5,3507.1 2071.2,3493.3 2081.5,3483.1 L2570.6,2995.8 C2580.8,2985.7 2594.6,2980.0 2608.9,2980.0 L3059.5,2980.0 C3074.2,2980.0 3088.3,2974.1 3098.5,2963.5 L3196.2,2862.8 C3206.0,2852.7 3211.5,2839.1 3211.5,2825.0 L3211.5,2705.8 C3211.5,2692.4 3206.6,2679.5 3197.6,2669.5 L3015.4,2466.5 C3006.4,2456.5 3001.5,2443.6 3001.5,2430.2 L3001.5,196.0" />
</g>
<g data-line="2" stroke="#8bc21f" stroke-width="16">
<path d="M5197.5,4915.5 L5197.5,3464.3 C5197.5,3426.6 5166.9,3396.0 5129.2,3396.0 L4335.9,3396.0 C4318.0,3396.0 4300.8,3389.0 4288.1,3376.4 L3908.0,3000.3 C3897.1,2989.5 3891.0,2974.9 3891.0,2959.7 L3890.7,2838.8 C3890.6,2817.3 3873.1,2799.9 3851.6,2799.9 L3707.5,2800.1 L3646.9,2746.4 C3634.1,2733.9 3617.0,2726.9 3599.1,2726.9 L1296.3,2725.5 C1280.6,2725.5 1265.3,2730.9 1253.2,2740.8 L1170.8,2807.7 C1158.6,2817.6 1143.4,2823.0 1127.8,2823.0 L791.5,2823.0 C771.0,2823.0 751.4,2831.2 737.0,2845.7 L693.7,2889.5" />
</g>
<g data-line="3" stroke="#fdd700" stroke-width="16">
<path d="M1914.9,3862.0 L2134.6,3862.0 C2182.1,3862.0 2220.5,3823.6 2220.5,3776.1 L2220.5,3667.6 C2220.5,3644.8 2211.5,3623.0 2195.4,3606.9 L2156.1,3567.7 C2140.0,3551.5 2131.0,3529.7 2131.0,3506.9 L2131.0,2319.9 C2131.0,2272.4 2169.4,2234.0 2216.9,2234.0 L3243.0,2234.0 C3268.1,2234.0 3291.9,2223.0 3308.2,2204.0 L3351.8,2153.1 C3365.2,2137.6 3372.5,2117.7 3372.5,2097.2 L3372.5,1457.1 C3372.5,1434.0 3381.8,1411.9 3398.3,1395.7 L3800.7,1002.3 C3817.2,986.1 3826.5,964.0 3826.5,940.9 L3826.5,370.6 C3826.5,347.8 3817.5,326.0 3801.4,309.9 L3740.0,248.5 C3723.9,232.4 3702.0,223.3 3679.3,223.3 L3435.5,223.3" />
</g>
<g data-line="4" stroke="#461d85" stroke-width="16">
<path d="M3873.3,3482.0 L2216.4,3482.0 C2178.9,3482.0 2148.5,3451.6 2148.5,3414.1 L2148.5,2320.1 C2148.5,2282.5 2178.9,2252.1 2216.4,2252.1 L3873.3,2252.1 C3910.8,2252.1 3941.2,2282.5 3941.2,2320.1 L3941.2,3414.1 C3941.2,3451.6 3910.8,3482.0 3873.3,3482.0" />
</g>
<g data-line="5" stroke="#964b9b" stroke-width="16">
<path d="M2235.0,5918.0 L2235.0,5779.1 C2235.0,5744.2 2206.8,5716.0 2171.9,5716.0 L1653.6,5716.0 C1618.7,5716.0 1590.5,5687.8 1590.5,5652.9 L1590.5,4218.3 C1590.5,4204.2 1595.3,4190.5 1604.0,4179.3 L1624.2,4153.7" />
</g>
<g data-line="6" stroke="#e20169" stroke-width="16">
<path d="M3058.8,4134.0 L3507.9,4134.0 C3555.6,4134.0 3594.2,4095.4 3594.2,4047.8 L3594.2,3691.1 C3594.2,3668.2 3603.3,3646.3 3619.4,3630.1 L3740.7,3508.8 C3756.9,3492.6 3766.0,3470.7 3766.0,3447.8 L3766.0,3244.6 C3766.0,3222.0 3774.9,3200.3 3790.7,3184.2 L4516.9,2445.7 C4532.7,2429.7 4541.5,2408.1 4541.6,2385.5 L4543.4,1778.5 C4543.5,1756.8 4551.7,1735.8 4566.6,1719.9 L4641.6,1639.5 C4656.5,1623.5 4664.8,1602.5 4664.8,1580.7 L4664.8,1199.3" />
</g>
<g data-line="7" stroke="#ec6e00" stroke-width="16">
<path d="M4435.2,3184.7 L3862.1,3756.8 C3849.8,3769.1 3833.0,3776.0 3815.6,3776.0 L2655.0,3776.0 C2618.6,3776.0 2589.1,3746.5 2589.1,3710.1 L2589.1,1544.2 C2589.1,1526.5 2582.0,1509.5 2569.4,1497.1 L2406.2,1337.3 C2393.9,1325.3 2377.3,1318.5 2360.1,1318.5 L1899.3,1318.5 C1882.1,1318.5 1865.6,1311.8 1853.3,1299.8 L1757.9,1206.9 C1745.2,1194.5 1738.0,1177.5 1738.0,1159.7 L1738.0,182.0" />
</g>
<g data-line="8" stroke="#0095da" stroke-width="16">
<path d="M4158.2,1397.3 L4158.2,1726.8 C4158.2,1740.8 4152.6,1754.3 4142.8,1764.3 L3939.9,1970.7 C3929.8,1980.9 3916.1,1986.7 3901.7,1986.7 L3397.3,1986.7 C3381.6,1986.7 3366.6,1993.6 3356.5,2005.6 L3244.2,2138.4 C3236.0,2148.0 3231.5,2160.3 3231.5,2173.0 L3231.5,2707.8 C3231.5,2719.3 3235.2,2730.5 3242.1,2739.7 L3306.9,2827.1 C3313.8,2836.4 3317.5,2847.5 3317.5,2859.0 L3317.5,3965.8 C3317.5,3995.4 3293.5,4019.3 3263.9,4019.3 L3179.8,4019.3 C3164.7,4019.3 3150.4,4025.6 3140.2,4036.7 L2961.5,4232.0 C2952.5,4241.9 2947.5,4254.8 2947.5,4268.1 L2947.5,4949.3" />
</g>
<g data-line="9" stroke="#87c9ec" stroke-width="16">
<path d="M5206.5,2508.5 L4901.8,2508.5 C4874.1,2508.5 4847.5,2519.5 4827.8,2539.0 L4367.1,2996.5 C4347.4,3016.0 4320.8,3027.0 4293.1,3027.0 L3679.1,3027.0 C3652.0,3027.0 3625.9,3037.5 3606.4,3056.3 L3443.3,3213.2 C3423.8,3232.0 3397.7,3242.5 3370.5,3242.5 L2178.3,3242.5 C2150.5,3242.5 2123.8,3253.6 2104.1,3273.3 L1956.9,3420.6 C1937.2,3440.3 1910.5,3451.3 1882.7,3451.3 L1196.4,3451.3 C1168.9,3451.3 1142.5,3462.1 1122.9,3481.3 L676.9,3918.5 C657.2,3937.8 645.9,3964.1 645.5,3991.8 L640.2,4316.1 C639.7,4343.4 628.7,4369.4 609.4,4388.7 L336.8,4660.7" />
</g>
<g data-line="10" stroke="#c6afd3" stroke-width="16">
<path d="M4855.5,1204.8 L4032.2,1204.8 C4010.7,1204.8 3990.3,1213.9 3976.0,1229.8 L3910.9,1302.1 C3898.4,1316.0 3891.5,1334.0 3891.5,1352.7 L3891.5,1740.7 C3891.5,1760.7 3883.5,1780.0 3869.4,1794.2 L3485.5,2178.3 C3471.3,2192.5 3463.3,2211.8 3463.3,2231.8 L3463.3,2910.2 C3463.3,2931.1 3454.7,2951.1 3439.4,2965.4 L3358.9,3040.9 C3344.9,3054.1 3326.4,3061.4 3307.2,3061.4 L2937.5,3061.4 C2917.6,3061.4 2898.6,3053.6 2884.4,3039.6 L2860.7,3016.3 C2846.6,3002.4 2828.8,2987.8 2808.9,2987.8 C2791.4,2987.8 2773.0,3000.7 2759.5,3011.8 L2717.3,3046.7 C2703.8,3057.8 2687.0,3063.9 2669.6,3064.0 L2152.4,3066.9 C2131.4,3067.0 2111.3,3058.4 2096.9,3043.2 L1937.3,2873.9 C1923.0,2858.7 1903.1,2850.1 1882.2,2850.1 L977.2,2850.1" />
<path d="M1670.5,2850.1 L1649.3,2850.1 C1636.6,2850.1 1624.5,2855.1 1615.5,2864.0 L1278.5,3197.6 C1269.5,3206.5 1257.4,3211.5 1244.7,3211.5 L1149.0,3211.5" />
</g>
<g data-line="11" stroke="#861a2a" stroke-width="16">
<path d="M4618.7,4542.0 L4348.5,4301.2 L3248.1,4301.2 C3228.5,4301.2 3209.7,4293.4 3195.8,4279.5 L3075.9,4159.6 C3062.1,4145.7 3043.3,4138.0 3023.7,4138.0 L2786.8,4138.0 C2767.2,4138.0 2748.4,4130.2 2734.5,4116.3 L2354.8,3736.6 C2341.1,3722.9 2333.3,3704.3 2333.2,3684.8 L2323.6,2257.7 C2323.4,2238.2 2315.7,2219.6 2301.9,2205.9 L1102.1,1006.1 C1088.3,992.2 1080.5,973.4 1080.5,953.8 L1080.5,190.0" />
<path d="M1158.5,1062.5 L1032.8,1062.5 C1013.7,1062.5 995.4,1070.0 981.8,1083.5 L665.2,1398.0 C651.6,1411.4 633.3,1419.0 614.2,1419.0 L333.5,1419.0" />
</g>
<g data-line="12" stroke="#00785f" stroke-width="16">
<path d="M4860.0,2510.0 L4860.0,2205.7 C4860.0,2180.2 4839.3,2159.5 4813.9,2159.5 L3943.1,2159.5 C3930.9,2159.5 3919.1,2164.4 3910.5,2173.0 L3586.5,2497.0 C3577.8,2505.7 3566.1,2510.6 3553.8,2510.6 L3476.1,2510.6 C3464.8,2510.6 3453.8,2506.4 3445.4,2498.8 L3413.1,2470.0 C3404.7,2462.4 3393.7,2458.2 3382.4,2458.2 L2996.4,2458.2 C2983.5,2458.2 2971.3,2463.5 2962.5,2473.0 L2931.3,2506.7 C2923.4,2515.3 2919.0,2526.5 2919.0,2538.1 L2919.0,2794.0 C2919.0,2805.6 2914.6,2816.7 2906.8,2825.3 L2821.2,2918.3 C2813.3,2926.8 2808.9,2937.9 2808.9,2949.5 L2808.9,3664.5 C2808.9,3690.0 2788.3,3710.6 2762.8,3710.6 L1660.1,3710.6 C1647.9,3710.6 1636.1,3715.5 1627.5,3724.1 L1442.3,3909.3 C1433.7,3918.0 1421.9,3922.8 1409.7,3922.8 L1086.0,3922.8" />
</g>
<g data-line="13" stroke="#e899c0" stroke-width="16">
<path d="M4901.5,4029.3 L4189.9,4029.3 C4164.9,4029.3 4140.9,4019.4 4123.2,4001.7 L4079.8,3958.3 C4062.1,3940.6 4038.1,3930.6 4013.0,3930.6 L3194.3,3930.6 C3142.1,3930.6 3099.9,3888.4 3099.9,3836.2 L3099.9,3089.4 C3099.9,3068.2 3092.8,3047.6 3079.7,3031.0 L3026.4,2963.4 C3013.3,2946.7 3006.2,2926.1 3006.2,2905.0 L3006.2,2553.0 C3006.2,2500.8 2997.3,2458.6 2945.2,2458.6 L1787.3,2458.6 C1762.2,2458.6 1738.2,2448.6 1720.5,2430.9 L1548.5,2258.9 C1530.8,2241.2 1506.8,2231.3 1481.8,2231.3 L870.8,2231.3" />
</g>
<g data-line="14" stroke="#626020" stroke-width="16">
<path d="M743.5,1854.0 L1379.2,1854.0 C1390.9,1854.0 1402.2,1858.6 1410.6,1866.8 L1574.4,2026.7 C1582.8,2034.9 1594.1,2039.5 1605.8,2039.5 L2199.5,2039.5 C2210.8,2039.5 2221.6,2043.7 2229.9,2051.3 L2312.4,2126.8 C2321.3,2135.0 2326.6,2146.4 2327.0,2158.5 L2327.4,2170.0 C2327.8,2181.2 2332.3,2191.8 2340.1,2199.9 L2434.6,2296.9 C2442.8,2305.3 2447.4,2316.6 2447.4,2328.3 L2447.4,2574.0 C2447.4,2586.1 2452.3,2597.8 2461.0,2606.3 L2748.9,2886.3 C2757.3,2894.5 2768.5,2899.1 2780.2,2899.1 L3436.2,2900.8 C3447.9,2900.9 3459.2,2896.3 3467.7,2888.1 L3567.1,2791.8 C3575.4,2783.7 3586.4,2779.2 3598.0,2779.1 L4051.7,2774.7 C4063.7,2774.6 4075.2,2769.6 4083.6,2761.0 L4300.0,2537.4 C4308.3,2528.8 4319.7,2523.9 4331.7,2523.7 L4419.3,2522.5 C4444.4,2522.1 4465.0,2542.4 4465.0,2567.5 L4465.0,2841.4 C4465.0,2866.3 4485.2,2886.5 4510.1,2886.4 L5191.5,2885.0" />
</g>
<g data-line="15" stroke="#cab08d" stroke-width="16">
<path d="M1738.0,958.0 L1839.6,958.0 C1861.2,958.0 1881.9,967.0 1896.6,982.8 L1994.7,1088.2 C2008.1,1102.5 2015.5,1121.4 2015.6,1141.0 L2017.6,2073.5 C2017.7,2092.5 2010.7,2110.9 1998.2,2125.1 L1898.8,2237.9 C1886.3,2252.1 1879.4,2270.5 1879.4,2289.5 L1880.8,2909.9 C1880.8,2927.8 1874.7,2945.2 1863.4,2959.1 L1785.9,3054.6 C1774.6,3068.5 1768.5,3085.8 1768.5,3103.6 L1768.5,3684.2 C1768.5,3704.6 1776.5,3724.2 1790.8,3738.7 L2080.2,4033.3 C2094.5,4047.8 2102.5,4067.4 2102.5,4087.8 L2102.5,5454.0" />
</g>
<g data-line="16" stroke="#98d1c0" stroke-width="16">
<path d="M4274.5,3370.4 L4274.5,3515.7 C4274.5,3526.9 4278.1,3537.7 4284.8,3546.6 L4340.2,3620.6 C4346.9,3629.5 4350.5,3640.4 4350.5,3651.5 L4350.5,5394.5 C4350.5,5422.9 4373.6,5446.0 4402.0,5446.0 L4842.1,5446.0 C4855.8,5446.0 4868.9,5451.4 4878.6,5461.1 L5218.5,5802.0" />
</g>
<g data-line="17" stroke="#bc7970" stroke-width="16">
<path d="M970.2,2801.0 L780.3,2801.0 C759.5,2801.0 739.6,2809.3 724.9,2823.9 L573.1,2975.7 C558.4,2990.4 550.2,3010.3 550.2,3031.1 L548.1,3716.0 C548.1,3734.6 541.5,3752.5 529.5,3766.7 L429.2,3877.3" />
</g>
<g data-line="18" stroke="#c4984f" stroke-width="16">
<path d="M3519.3,1282.0 L3519.3,1506.2 C3519.3,1520.7 3525.0,1534.6 3535.3,1544.8 L3940.5,1950.1 C3950.8,1960.3 3956.5,1974.2 3956.5,1988.7 L3956.5,2134.6 C3956.5,2149.0 3962.3,2162.9 3972.5,2173.2 L4181.7,2382.4 C4192.0,2392.6 4197.7,2406.5 4197.7,2421.0 L4197.7,3004.5 C4197.7,3018.9 4203.4,3032.7 4213.5,3043.0 L4245.7,3075.4 C4255.8,3085.6 4261.5,3099.4 4261.5,3113.8 L4261.5,3650.8 C4261.5,3665.1 4255.9,3678.8 4245.9,3689.0 L4179.1,3757.1 C4169.1,3767.3 4163.5,3781.0 4163.5,3795.3 L4163.5,4153.6 C4163.5,4166.9 4158.6,4179.8 4149.8,4189.8 L4080.1,4268.5 C4071.2,4278.5 4066.4,4291.4 4066.4,4304.7 L4066.4,5487.3" />
</g>
<g data-line="AL" stroke="#0d7370" stroke-width="16">
<path d="M4313.8,3429.4 C4332.6,3448.1 4348.8,3470.6 4370.0,3486.6 C4388.1,3500.3 4410.6,3510.6 4433.3,3513.4 C4458.4,3516.4 4484.2,3513.0 4509.5,3513.0 C4537.7,3513.0 4560.5,3535.9 4560.5,3564.0 L4560.5,4074.0 C4560.5,4102.2 4583.3,4125.0 4611.5,4125.0 L4886.5,4125.0 C4914.7,4125.0 4937.5,4147.9 4937.5,4176.0 L4937.5,4276.5 L4937.5,4445.3 C4937.5,4474.4 4933.3,4508.0 4947.4,4534.4 C4960.6,4559.0 4982.8,4577.1 5002.3,4596.4 C5027.9,4621.8 5053.5,4647.1 5079.0,4672.4 C5116.2,4709.2 5158.8,4746.7 5158.8,4803.7 L5158.8,4845.4 L5158.8,4918.1 L5158.8,4919.2" />
</g>
<g data-line="Pujiang" stroke="#b6b6b6" stroke-width="16">
<path d="M2949.5,4953.4 L2985.8,4976.8 C2996.5,4983.7 3008.9,4987.3 3021.6,4987.3 L3078.2,4987.3 C3114.6,4987.3 3144.2,5016.9 3144.2,5053.3 L3144.2,5411.4 C3144.2,5447.8 3114.6,5477.4 3078.2,5477.4 L3019.5,5477.4" />
</g>
<g data-line="AL"><path d="M5004.2,4720.3 L4763.7,4439.9 L4775.3,4430.9 L4765.5,4418.2 L4753.3,4427.7 L4722.8,4392.1 C4695.0,4359.7 4654.6,4341.2 4612.0,4341.2 L4567.0,4341.2 L4567.0,4321.3 L4551.0,4321.3 L4551.0,4341.2 L1400.7,4341.2 C1357.9,4341.2 1316.5,4328.5 1281.0,4304.6 L1166.8,4227.7 C1107.5,4187.8 1072.2,4121.3 1072.2,4049.9 L1072.2,2827.6 L1056.2,2827.6 L1056.2,4049.9 C1056.2,4126.6 1094.2,4198.0 1157.8,4240.9 L1272.0,4317.9 C1310.2,4343.6 1354.7,4357.2 1400.7,4357.2 L2841.6,4357.2 L2841.6,4372.2 L2857.6,4372.2 L2857.6,4357.2 L4612.0,4357.2 C4650.0,4357.2 4685.9,4373.7 4710.6,4402.5 L4992.0,4730.6 L5114.7,4876.7 L5127.0,4866.5 L5004.2,4720.3 Z" fill="white" stroke="#0d7370" stroke-width="2" fill-rule="evenodd" /></g>
<g data-line="ML"><path d="M4310.2,3433.7 C4329.0,3452.4 4345.1,3474.9 4366.3,3490.9 C4384.5,3504.6 4406.9,3514.9 4429.6,3517.7 C4454.8,3520.7 4480.6,3517.3 4505.8,3517.3 C4534.0,3517.3 4556.8,3540.2 4556.8,3568.3 L4556.8,4078.3 C4556.8,4106.5 4579.7,4129.3 4607.8,4129.3 L4882.8,4129.3 C4911.0,4129.3 4933.8,4152.2 4933.8,4180.3 L4933.8,4280.8 L4933.8,4449.6 C4933.8,4478.7 4929.6,4512.3 4943.8,4538.7 C4957.0,4563.3 4979.1,4581.4 4998.7,4600.8 C5024.2,4626.1 5049.8,4651.4 5075.4,4676.7 C5112.6,4713.6 5155.2,4751.0 5155.2,4808.0 L5155.2,4849.7 L5155.2,4922.4 L5155.2,4923.5" fill="none" stroke="#ef7002" stroke-width="8" /></g>
</g>
<g id="line-extensions" fill="none" stroke-linecap="round">
<line data-line="17" x1="445.1" y1="3877.5" x2="360.0" y2="3972.0" stroke="#bc7970" stroke-width="16" />
<line data-line="18" x1="3519.3" y1="1282.0" x2="3387.0" y2="1183.0" stroke="#c4984f" stroke-width="16" />
<line data-line="18" x1="3387.0" y1="1183.0" x2="3255.0" y2="1084.0" stroke="#c4984f" stroke-width="16" />
<line data-line="18" x1="3255.0" y1="1084.0" x2="3123.0" y2="985.0" stroke="#c4984f" stroke-width="16" />
<line data-line="18" x1="3123.0" y1="985.0" x2="2989.0" y2="884.0" stroke="#c4984f" stroke-width="16" />
<line data-line="18" x1="2989.0" y1="884.0" x2="2857.0" y2="785.0" stroke="#c4984f" stroke-width="16" />
</g>
<g id="ticks" fill="none" stroke-linecap="butt">
<g data-line="1" stroke="#e20229" stroke-width="16">
<path d="M1681.4,4097.4 L1697.8,4113.8" />
<path d="M1747.5,4031.5 L1763.2,4049.2" />
<path d="M1815.2,3963.9 L1829.2,3979.8" />
<path d="M2405.6,3163.7 L2419.6,3179.7" />
<path d="M3106.4,2566.0 L3125.2,2549.6" />
<path d="M2976.3,2030.3 L3001.3,2030.2" />
<path d="M2976.3,1866.7 L3001.3,1866.7" />
<path d="M2976.3,1702.0 L3001.3,1702.0" />
<path d="M2976.3,1538.3 L3001.3,1538.3" />
<path d="M2976.3,1374.3 L3001.3,1374.3" />
<path d="M2976.3,1211.3 L3001.3,1211.3" />
<path d="M2976.3,1047.0 L3001.3,1047.0" />
<path d="M2976.3,883.7 L3001.3,883.7" />
<path d="M2976.3,718.7 L3001.3,718.7" />
<path d="M2976.3,556.0 L3001.3,556.0" />
<path d="M2976.3,392.3 L3001.3,392.3" />
<path d="M2976.3,227.7 L3001.3,227.7" />
</g>
<g data-line="2" stroke="#8bc21f" stroke-width="16">
<path d="M1290.9,2704.3 L1291.1,2725.5" />
<path d="M1494.9,2704.3 L1495.1,2725.5" />
<path d="M1698.4,2704.3 L1698.6,2725.5" />
<path d="M4041.3,3104.2 L4026.3,3119.2" />
<path d="M4110.3,3203.4 L4095.2,3218.3" />
<path d="M4417.4,3374.9 L4417.2,3396.1" />
<path d="M4589.1,3374.9 L4588.9,3396.1" />
<path d="M4760.6,3374.9 L4760.4,3396.1" />
<path d="M4933.1,3374.9 L4932.9,3396.1" />
<path d="M5104.7,3374.9 L5104.4,3396.1" />
<path d="M5199.0,3498.7 L5177.8,3498.8" />
<path d="M5199.0,3695.0 L5177.8,3695.0" />
<path d="M5199.0,3892.0 L5177.8,3892.0" />
<path d="M5199.0,4087.0 L5177.8,4087.0" />
<path d="M5199.0,4283.0 L5177.8,4283.0" />
<path d="M701.0,2886.6 L716.7,2900.8" />
</g>
<g data-line="3" stroke="#fdd700" stroke-width="16">
<path d="M2157.8,3879.0 L2157.8,3859.1" />
<path d="M2173.5,3552.0 L2157.2,3568.8" />
<path d="M3372.5,2065.3 L3396.2,2065.3" />
<path d="M3372.5,1817.3 L3350.2,1817.3" />
<path d="M3372.5,1675.0 L3350.2,1675.0" />
<path d="M3372.5,1535.7 L3348.8,1535.7" />
<path d="M3395.8,1398.3 L3381.8,1384.3" />
<path d="M3690.8,1109.7 L3673.8,1092.7" />
<path d="M3826.5,933.3 L3802.5,933.3" />
<path d="M3826.5,796.3 L3802.5,796.3" />
<path d="M3826.5,659.0 L3802.5,659.0" />
<path d="M3826.5,521.7 L3803.8,521.7" />
<path d="M3826.5,385.3 L3803.8,385.3" />
<path d="M3659.2,223.3 L3659.2,243.3" />
<path d="M3453.2,223.3 L3453.2,242.0" />
</g>
<g data-line="4" stroke="#461d85" stroke-width="16">
<path d="M2461.3,3482.0 L2461.3,3460.3" />
<path d="M2965.0,3482.0 L2965.0,3459.5" />
<path d="M3421.5,3482.0 L3421.5,3458.5" />
<path d="M3639.5,3482.0 L3639.5,3455.5" />
<path d="M3941.2,3297.0 L3967.5,3297.0" />
<path d="M3941.2,2491.5 L3969.5,2491.5" />
<path d="M3655.0,2252.1 L3655.0,2273.5" />
</g>
<g data-line="5" stroke="#964b9b" stroke-width="16">
<path d="M1024.5,5330.0 L1590.5,5330.0" />
<path d="M1590.5,4394.7 L1613.8,4394.7" />
<path d="M1590.5,4504.8 L1613.0,4504.8" />
<path d="M1590.5,4686.7 L1613.0,4686.7" />
<path d="M1590.5,4872.7 L1613.0,4872.7" />
<path d="M1590.5,5055.7 L1613.0,5055.7" />
<path d="M1590.5,5239.0 L1613.0,5239.0" />
<path d="M1590.5,5422.7 L1613.0,5422.7" />
<path d="M1590.5,5574.0 L1566.8,5574.0" />
<path d="M1592.5,5668.7 L1570.2,5668.7" />
<path d="M1780.5,5716.0 L1780.5,5693.3" />
<path d="M1958.5,5716.0 L1958.5,5692.0" />
<path d="M2113.8,5716.0 L2113.8,5690.7" />
<path d="M2235.0,5779.1 L2257.5,5779.1" />
<path d="M2235.0,5889.0 L2257.5,5889.0" />
<path d="M1498.5,5330.0 L1498.5,5306.3" />
<path d="M1346.2,5330.0 L1346.2,5308.3" />
<path d="M1193.8,5330.0 L1193.8,5308.3" />
<path d="M1042.8,5330.0 L1042.8,5308.3" />
</g>
<g data-line="6" stroke="#e20169" stroke-width="16">
<path d="M3171.5,4134.0 L3171.5,4154.5" />
<path d="M3357.2,4134.0 L3357.2,4154.5" />
<path d="M3542.5,4126.8 L3542.5,4148.0" />
<path d="M3591.7,4068.2 L3615.5,4068.2" />
<path d="M3623.5,3626.0 L3640.2,3642.7" />
<path d="M3681.3,3568.2 L3699.3,3586.2" />
<path d="M3739.7,3234.6 L3760.3,3234.6" />
<path d="M4120.2,2849.1 L4136.2,2865.0" />
<path d="M4273.1,2693.6 L4290.5,2711.0" />
<path d="M4355.2,2610.1 L4372.5,2627.3" />
<path d="M4516.9,2445.7 L4536.0,2464.9" />
<path d="M4541.7,2366.3 L4566.2,2366.3" />
<path d="M4541.9,2274.3 L4566.2,2274.3" />
<path d="M4542.7,2013.7 L4564.8,2013.7" />
<path d="M4543.0,1903.0 L4564.8,1903.0" />
<path d="M4543.4,1791.0 L4564.8,1791.0" />
<path d="M4664.8,1565.7 L4687.8,1565.7" />
<path d="M4664.8,1446.0 L4687.8,1446.0" />
<path d="M4664.8,1323.7 L4689.5,1323.7" />
</g>
<g data-line="7" stroke="#ec6e00" stroke-width="16">
<path d="M4424.9,3194.9 L4405.9,3175.9" />
<path d="M4119.9,3499.4 L4137.0,3516.5" />
<path d="M4030.6,3588.6 L4048.7,3606.7" />
<path d="M3942.2,3676.8 L3960.3,3695.0" />
<path d="M3443.0,3776.0 L3443.0,3796.8" />
<path d="M2962.2,3776.0 L2962.2,3796.3" />
<path d="M2589.1,2627.5 L2610.5,2627.5" />
<path d="M2589.1,2137.8 L2562.8,2137.8" />
<path d="M2589.1,2020.5 L2562.8,2020.5" />
<path d="M2589.1,1904.5 L2562.8,1904.5" />
<path d="M2588.0,1786.8 L2562.8,1786.8" />
<path d="M2588.0,1670.3 L2562.8,1670.3" />
<path d="M2588.0,1554.5 L2562.8,1554.5" />
<path d="M2483.1,1412.6 L2503.2,1392.5" />
<path d="M2312.8,1318.5 L2312.8,1291.8" />
<path d="M2116.2,1318.5 L2116.2,1291.8" />
<path d="M1738.0,1140.8 L1710.8,1140.8" />
<path d="M1738.0,775.3 L1710.5,775.3" />
<path d="M1738.0,590.8 L1710.2,590.8" />
<path d="M1738.0,406.3 L1711.2,406.3" />
<path d="M1738.0,223.3 L1710.2,223.3" />
</g>
<g data-line="8" stroke="#0095da" stroke-width="16">
<path d="M4157.3,1424.3 L4180.2,1424.3" />
<path d="M4158.2,1528.8 L4181.8,1528.8" />
<path d="M4158.2,1629.7 L4181.7,1629.7" />
<path d="M4158.2,1730.5 L4180.2,1730.5" />
<path d="M4116.2,1791.4 L4129.7,1804.9" />
<path d="M4035.2,1873.7 L4049.2,1887.7" />
<path d="M3834.3,1986.7 L3834.3,1967.3" />
<path d="M3522.6,1986.7 L3522.6,1967.2" />
<path d="M3312.1,2058.1 L3296.2,2042.2" />
<path d="M3249.5,2132.1 L3231.5,2120.2" />
<path d="M3317.5,3626.8 L3340.0,3626.8" />
<path d="M3173.5,4019.7 L3168.0,3999.0" />
<path d="M2981.5,4211.7 L3004.0,4211.7" />
<path d="M2947.5,4301.2 L2970.0,4301.2" />
<path d="M2947.5,4545.8 L2970.0,4545.8" />
<path d="M2947.5,4683.3 L2971.2,4683.3" />
<path d="M2947.5,4820.0 L2972.5,4820.0" />
</g>
<g data-line="9" stroke="#87c9ec" stroke-width="16">
<path d="M5191.3,2508.5 L5191.3,2532.7" />
<path d="M5052.5,2508.5 L5052.5,2531.8" />
<path d="M4915.5,2508.5 L4915.5,2531.8" />
<path d="M4760.3,2606.0 L4774.2,2619.8" />
<path d="M4675.3,2690.4 L4691.4,2706.6" />
<path d="M4589.6,2775.5 L4606.9,2792.8" />
<path d="M4380.2,2983.5 L4398.6,3001.9" />
<path d="M3750.0,3027.0 L3750.0,3052.5" />
<path d="M3522.8,3136.8 L3505.8,3119.8" />
<path d="M2948.2,3242.5 L2948.2,3265.0" />
<path d="M1613.7,3451.3 L1613.7,3474.2" />
<path d="M1458.5,3427.3 L1458.5,3450.3" />
<path d="M1301.3,3451.3 L1301.3,3474.3" />
<path d="M1170.2,3432.7 L1170.2,3454.4" />
<path d="M951.9,3648.9 L968.1,3665.1" />
<path d="M853.6,3745.3 L869.3,3761.0" />
<path d="M754.8,3842.2 L769.8,3857.2" />
<path d="M644.8,4033.3 L666.7,4033.3" />
<path d="M641.6,4227.2 L664.3,4227.2" />
<path d="M614.4,4383.3 L632.3,4401.2" />
<path d="M532.2,4465.7 L549.6,4483.1" />
<path d="M449.8,4548.0 L467.9,4566.1" />
<path d="M367.7,4629.9 L385.6,4647.8" />
</g>
<g data-line="10" stroke="#c6afd3" stroke-width="16">
<path d="M4823.5,1204.8 L4823.5,1180.3" />
<path d="M4528.5,1204.8 L4528.5,1178.5" />
<path d="M4392.0,1204.8 L4392.0,1178.5" />
<path d="M4253.8,1225.8 L4253.8,1199.5" />
<path d="M4032.8,1204.8 L4032.8,1178.5" />
<path d="M3892.3,1342.0 L3918.0,1342.0" />
<path d="M3892.3,1446.0 L3918.0,1446.0" />
<path d="M3892.3,1547.0 L3918.0,1547.0" />
<path d="M3892.3,1648.0 L3918.0,1648.0" />
<path d="M3892.3,1749.1 L3918.0,1749.1" />
<path d="M3741.4,1922.2 L3724.7,1905.5" />
<path d="M3561.1,2102.6 L3581.6,2123.1" />
<path d="M3463.3,2388.8 L3485.8,2388.8" />
<path d="M2419.0,3065.4 L2419.0,3038.3" />
<path d="M2057.0,3000.9 L2037.2,3020.7" />
<path d="M1973.7,2912.5 L1954.7,2931.5" />
<path d="M1776.5,2850.1 L1776.5,2871.3" />
<path d="M1670.5,2826.3 L1670.5,2852.7" />
<path d="M1520.8,2850.1 L1520.8,2824.0" />
<path d="M1308.8,2855.1 L1308.8,2831.0" />
<path d="M1506.9,2971.5 L1523.3,2987.8" />
<path d="M1369.1,3107.9 L1385.2,3124.7" />
<path d="M1181.2,3211.5 L1181.2,3236.3" />
</g>
<g data-line="11" stroke="#861a2a" stroke-width="16">
<path d="M4426.5,4368.0 L4410.8,4384.2" />
<path d="M4518.4,4428.2 L4502.8,4444.4" />
<path d="M4609.7,4538.0 L4594.0,4554.2" />
<path d="M3678.5,4276.5 L3678.5,4298.0" />
<path d="M3489.8,4277.1 L3489.8,4297.3" />
<path d="M3302.5,4274.3 L3302.5,4295.8" />
<path d="M2648.7,4030.5 L2666.5,4012.7" />
<path d="M2509.2,3891.0 L2525.3,3874.8" />
<path d="M2332.8,3636.0 L2350.2,3636.0" />
<path d="M2227.4,2131.4 L2211.0,2147.8" />
<path d="M1859.9,1795.9 L1879.3,1776.5" />
<path d="M1778.4,1682.4 L1797.3,1663.5" />
<path d="M1678.9,1582.9 L1697.5,1564.3" />
<path d="M1580.3,1484.2 L1599.5,1465.0" />
<path d="M1481.4,1385.4 L1500.7,1366.2" />
<path d="M1382.8,1286.7 L1400.8,1267.0" />
<path d="M1286.1,1190.1 L1304.5,1172.0" />
<path d="M1187.6,1091.6 L1205.2,1074.0" />
<path d="M1080.5,758.3 L1102.8,758.3" />
<path d="M1080.5,498.3 L1104.5,498.3" />
<path d="M1080.5,231.7 L1104.8,231.7" />
<path d="M979.9,1085.4 L997.0,1102.5" />
<path d="M891.3,1173.4 L908.2,1190.3" />
<path d="M799.8,1264.3 L817.7,1282.2" />
<path d="M711.0,1352.5 L728.8,1367.7" />
<path d="M607.5,1390.2 L607.5,1413.9" />
<path d="M483.5,1419.0 L483.5,1442.7" />
</g>
<g data-line="12" stroke="#00785f" stroke-width="16">
<path d="M4860.0,2369.0 L4879.0,2369.0" />
<path d="M4860.0,2231.8 L4880.5,2231.8" />
<path d="M4714.2,2159.5 L4714.2,2141.0" />
<path d="M4451.0,2159.5 L4451.0,2137.3" />
<path d="M4236.5,2159.5 L4236.5,2137.5" />
<path d="M4316.5,2180.5 L4316.5,2158.5" />
<path d="M4149.2,2159.5 L4149.2,2180.3" />
<path d="M4062.5,2159.5 L4062.5,2134.3" />
<path d="M3723.8,2359.8 L3741.0,2377.0" />
<path d="M3630.0,2453.5 L3648.5,2472.0" />
<path d="M1670.2,3710.6 L1670.2,3684.0" />
<path d="M1601.2,3750.4 L1584.2,3733.5" />
<path d="M1535.2,3816.4 L1516.9,3798.1" />
<path d="M1360.5,3922.8 L1360.5,3895.5" />
<path d="M1230.0,3922.8 L1230.0,3897.0" />
<path d="M1101.5,3922.8 L1101.5,3898.5" />
</g>
<g data-line="13" stroke="#e899c0" stroke-width="16">
<path d="M4876.2,4029.3 L4876.2,4006.3" />
<path d="M4745.2,4029.3 L4745.2,4006.3" />
<path d="M4615.8,4029.3 L4615.8,4006.3" />
<path d="M3961.2,3930.6 L3961.2,3951.7" />
<path d="M3870.8,3930.6 L3870.8,3906.7" />
<path d="M3780.5,3930.6 L3780.5,3950.9" />
<path d="M3690.8,3930.6 L3690.8,3904.7" />
<path d="M3099.6,3638.6 L3075.5,3638.6" />
<path d="M3099.9,3528.7 L3076.8,3528.7" />
<path d="M3006.2,2855.3 L3027.5,2855.3" />
<path d="M3006.2,2587.3 L3027.8,2587.3" />
<path d="M2760.8,2458.2 L2760.8,2432.3" />
<path d="M1673.0,2383.5 L1656.8,2399.7" />
<path d="M1575.7,2286.1 L1560.7,2301.2" />
<path d="M1389.5,2231.3 L1389.5,2207.7" />
<path d="M1134.2,2231.3 L1134.2,2205.0" />
<path d="M895.2,2231.3 L895.2,2205.0" />
</g>
<g data-line="14" stroke="#626020" stroke-width="16">
<path d="M5159.7,2885.1 L5159.7,2909.0" />
<path d="M5014.5,2885.4 L5014.5,2910.5" />
<path d="M4870.0,2864.6 L4870.0,2887.2" />
<path d="M4724.0,2886.0 L4724.0,2908.3" />
<path d="M4580.5,2886.3 L4580.5,2909.5" />
<path d="M4293.3,2544.3 L4275.0,2526.0" />
<path d="M4125.3,2717.9 L4104.1,2696.6" />
<path d="M2451.6,2592.9 L2433.2,2603.8" />
<path d="M2277.8,2095.2 L2297.5,2075.0" />
<path d="M1802.2,2039.5 L1802.2,2016.8" />
<path d="M1537.0,1990.2 L1551.9,1974.3" />
<path d="M1463.8,1918.7 L1480.7,1903.0" />
<path d="M1333.2,1854.0 L1333.2,1830.5" />
<path d="M1148.4,1854.0 L1148.4,1827.8" />
<path d="M961.2,1854.0 L961.2,1827.8" />
<path d="M773.5,1854.0 L773.5,1827.8" />
</g>
<g data-line="15" stroke="#cab08d" stroke-width="16">
<path d="M1942.6,1032.2 L1959.9,1014.9" />
<path d="M2016.1,1390.0 L2041.2,1390.0" />
<path d="M2016.1,1491.0 L2041.2,1491.0" />
<path d="M2016.1,1593.9 L2041.2,1593.9" />
<path d="M2016.8,1695.1 L2041.2,1695.1" />
<path d="M2016.8,1798.0 L2041.2,1798.0" />
<path d="M1920.2,2213.6 L1900.4,2193.7" />
<path d="M1880.0,2540.0 L1854.4,2540.0" />
<path d="M1880.5,2801.0 L1902.2,2801.0" />
<path d="M1768.5,3182.7 L1793.8,3182.7" />
<path d="M1768.5,3304.3 L1793.8,3304.3" />
<path d="M2089.4,4044.6 L2110.5,4030.8" />
<path d="M2102.5,4155.5 L2125.2,4155.5" />
<path d="M2102.5,4274.0 L2125.2,4274.0" />
<path d="M2102.5,4575.5 L2125.2,4575.5" />
<path d="M2102.5,4717.0 L2125.2,4717.0" />
<path d="M2102.5,4856.5 L2125.2,4856.5" />
<path d="M2102.5,4995.8 L2126.2,4995.8" />
<path d="M2102.5,5136.5 L2126.2,5136.5" />
<path d="M2102.5,5277.0 L2127.8,5277.0" />
<path d="M2102.5,5416.8 L2125.2,5416.8" />
</g>
<g data-line="16" stroke="#98d1c0" stroke-width="16">
<path d="M4350.5,4530.3 L4373.2,4530.3" />
<path d="M4350.5,4792.5 L4371.5,4792.5" />
<path d="M4350.5,5054.0 L4371.2,5054.0" />
<path d="M4481.2,5469.8 L4481.2,5446.0" />
<path d="M4652.5,5446.0 L4652.5,5421.0" />
<path d="M4816.5,5446.0 L4816.5,5421.0" />
<path d="M4908.3,5490.9 L4892.0,5507.3" />
<path d="M5002.1,5584.9 L4984.4,5602.6" />
<path d="M5096.7,5679.8 L5079.0,5697.5" />
<path d="M5191.4,5774.8 L5175.2,5791.0" />
</g>
<g data-line="17" stroke="#bc7970" stroke-width="16">
<path d="M682.7,2866.1 L664.9,2848.3" />
<path d="M615.1,2934.0 L597.1,2916.0" />
<path d="M560.3,2995.2 L537.2,2986.2" />
<path d="M550.2,3068.0 L569.8,3068.0" />
<path d="M550.2,3187.7 L571.7,3187.7" />
<path d="M550.2,3308.3 L571.7,3308.3" />
<path d="M550.2,3428.7 L569.8,3428.7" />
<path d="M550.2,3548.7 L569.8,3548.7" />
<path d="M550.2,3670.3 L569.8,3670.3" />
<path d="M521.5,3775.4 L538.8,3792.7" />
<path d="M436.6,3869.1 L453.5,3886.0" />
</g>
<g data-line="18" stroke="#c4984f" stroke-width="16">
<path d="M3519.3,1432.7 L3543.8,1432.7" />
<path d="M3562.8,1572.4 L3581.5,1553.7" />
<path d="M3674.0,1683.5 L3692.2,1665.3" />
<path d="M3885.1,1894.7 L3904.0,1875.9" />
<path d="M4069.3,2269.9 L4052.2,2287.4" />
<path d="M4145.8,2346.4 L4128.8,2363.3" />
<path d="M4261.5,3166.7 L4286.2,3166.7" />
<path d="M4163.5,3808.7 L4189.2,3808.7" />
<path d="M4163.5,3920.3 L4189.2,3920.3" />
<path d="M4066.4,4461.0 L4039.5,4461.0" />
<path d="M4066.4,4628.0 L4041.5,4628.0" />
<path d="M4066.4,4794.0 L4041.5,4794.0" />
<path d="M4066.4,4960.0 C4063.2,4959.7 4041.5,4960.0 4041.5,4960.0" />
<path d="M4066.4,5127.3 L4041.5,5127.3" />
<path d="M4066.4,5294.0 L4043.2,5294.0" />
<path d="M4066.4,5458.0 L4043.2,5458.0" />
</g>
<g data-line="Pujiang" stroke="#b6b6b6" stroke-width="16">
<path d="M3124.8,5006.7 L3144.2,4986.0" />
<path d="M3144.2,5118.7 L3170.8,5118.7" />
<path d="M3144.2,5253.0 L3170.8,5253.0" />
<path d="M3144.2,5380.7 L3170.8,5380.7" />
<path d="M3036.2,5477.4 L3036.2,5453.7" />
</g>
<!-- manual-station synthetic ticks -->
<g data-line="11" stroke="#861a2a" stroke-width="16">
<line x1="3872.4" y1="4283.0" x2="3871.6" y2="4305.0" data-manual-tick="11-40" />
</g>
<g data-line="17" stroke="#bc7970" stroke-width="16">
<line x1="368.2" y1="3979.4" x2="351.8" y2="3964.6" data-manual-tick="17-14" />
</g>
<g data-line="18" stroke="#c4984f" stroke-width="16">
<line x1="4043.0" y1="4961.0" x2="4065.0" y2="4961.0" data-manual-tick="18-26" />
<line x1="3393.6" y1="1174.2" x2="3380.4" y2="1191.8" data-manual-tick="18-27" />
<line x1="3248.4" y1="1092.8" x2="3261.6" y2="1075.2" data-manual-tick="18-28" />
<line x1="3116.4" y1="993.8" x2="3129.6" y2="976.2" data-manual-tick="18-29" />
<line x1="2850.4" y1="793.8" x2="2863.6" y2="776.2" data-manual-tick="18-31" />
</g>
</g>
</svg>