<svg xmlns="http://www.w3.org/2000/svg" viewBox="0 0 5348 7213" preserveAspectRatio="xMidYMid meet">
<g id="lines" fill="none" stroke-linecap="round" stroke-linejoin="round">
<g data-line="1" stroke="#e20229" stroke-width="16">
<path d="M1626.5,4151.0 L2049.6,3728.9 C2059.8,3718.7 2065.5,3704.9 2065.5,3690.5 L2065.5,3521.5 C2065.5,3507.1 2071.2,3493.3 2081.5,3483.1 L2570.6,2995.8 C2580.8,2985.7 2594.6,2980.0 2608.9,2980.0 L3059.5,2980.0 C3074.2,2980.0 3088.3,2974.1 3098.5,2963.5 L3196.2,2862.8 C3206.0,2852.7 3211.5,2839.1 3211.5,2825.0 L3211.5,2705.8 C3211.5,2692.4 3206.6,2679.5 3197.6,2669.5 L3015.4,2466.5 C3006.4,2456.5 3001.5,2443.6 3001.5,2430.2 L3001.5,196.0" />
</g>
<g data-line="2" stroke="#8bc21f" stroke-width="16">
<path d="M5197.5,4915.5 L5197.5,3464.3 C5197.5,3426.6 5166.9,3396.0 5129.2,3396.0 L4335.9,3396.0 C4318.0,3396.0 4300.8,3389.0 4288.1,3376.4 L3908.0,3000.3 C3897.1,2989.5 3891.0,2974.9 3891.0,2959.7 L3890.7,2838.8 C3890.6,2817.3 3873.1,2799.9 3851.6,2799.9 L3707.5,2800.1 L3646.9,2746.4 C3634.1,2733.9 3617.0,2726.9 3599.1,2726.9 L1296.3,2725.5 C1280.6,2725.5 1265.3,2730.9 1253.2,2740.8 L1170.8,2807.7 C1158.6,2817.6 1143.4,2823.0 1127.8,2823.0 L791.5,2823.0 C771.0,2823.0 751.4,2831.2 737.0,2845.7 L693.7,2889.5" />
</g>
<g data-line="3" stroke="#fdd700" stroke-width="16">
<path d="M1914.9,3862.0 L2134.6,3862.0 C2182.1,3862.0 2220.5,3823.6 2220.5,3776.1 L2220.5,3667.6 C2220.5,3644.8 2211.5,3623.0 2195.4,3606.9 L2156.1,3567.7 C2140.0,3551.5 2131.0,3529.7 2131.0,3506.9 L2131.0,2319.9 C2131.0,2272.4 2169.4,2234.0 2216.9,2234.0 L3243.0,2234.0 C3268.1,2234.0 3291.9,2223.0 3308.2,2204.0 L3351.8,2153.1 C3365.2,2137.6 3372.5,2117.7 3372.5,2097.2 L3372.5,1457.1 C3372.5,1434.0 3381.8,1411.9 3398.3,1395.7 L3800.7,1002.3 C3817.2,986.1 3826.5,964.0 3826.5,940.9 L3826.5,370.6 C3826.5,347.8 3817.5,326.0 3801.4,309.9 L3740.0,248.5 C3723.9,232.4 3702.0,223.3 3679.3,223.3 L3435.5,223.3" />
</g>
<g data-line="4" stroke="#461d85" stroke-width="16">
<path d="M3873.3,3482.0 L2216.4,3482.0 C2178.9,3482.0 2148.5,3451.6 2148.5,3414.1 L2148.5,2320.1 C2148.5,2282.5 2178.9,2252.1 2216.4,2252.1 L3873.3,2252.1 C3910.8,2252.1 3941.2,2282.5 3941.2,2320.1 L3941.2,3414.1 C3941.2,3451.6 3910.8,3482.0 3873.3,3482.0" />
</g>
<g data-line="5" stroke="#964b9b" stroke-width="16">
<path d="M2235.0,5918.0 L2235.0,5779.1 C2235.0,5744.2 2206.8,5716.0 2171.9,5716.0 L1653.6,5716.0 C1618.7,5716.0 1590.5,5687.8 1590.5,5652.9 L1590.5,4218.3 C1590.5,4204.2 1595.3,4190.5 1604.0,4179.3 L1624.2,4153.7" />
</g>
<g data-line="6" stroke="#e20169" stroke-width="16">
<path d="M3058.8,4134.0 L3507.9,4134.0 C3555.6,4134.0 3594.2,4095.4 3594.2,4047.8 L3594.2,3691.1 C3594.2,3668.2 3603.3,3646.3 3619.4,3630.1 L3740.7,3508.8 C3756.9,3492.6 3766.0,3470.7 3766.0,3447.8 L3766.0,3244.6 C3766.0,3222.0 3774.9,3200.3 3790.7,3184.2 L4516.9,2445.7 C4532.7,2429.7 4541.5,2408.1 4541.6,2385.5 L4543.4,1778.5 C4543.5,1756.8 4551.7,1735.8 4566.6,1719.9 L4641.6,1639.5 C4656.5,1623.5 4664.8,1602.5 4664.8,1580.7 L4664.8,1199.3" />
</g>
<g data-line="7" stroke="#ec6e00" stroke-width="16">
<path d="M4435.2,3184.7 L3862.1,3756.8 C3849.8,3769.1 3833.0,3776.0 3815.6,3776.0 L2655.0,3776.0 C2618.6,3776.0 2589.1,3746.5 2589.1,3710.1 L2589.1,1544.2 C2589.1,1526.5 2582.0,1509.5 2569.4,1497.1 L2406.2,1337.3 C2393.9,1325.3 2377.3,1318.5 2360.1,1318.5 L1899.3,1318.5 C1882.1,1318.5 1865.6,1311.8 1853.3,1299.8 L1757.9,1206.9 C1745.2,1194.5 1738.0,1177.5 1738.0,1159.7 L1738.0,182.0" />
</g>
<g data-line="8" stroke="#0095da" stroke-width="16">
<path d="M4158.2,1397.3 L4158.2,1726.8 C4158.2,1740.8 4152.6,1754.3 4142.8,1764.3 L3939.9,1970.7 C3929.8,1980.9 3916.1,1986.7 3901.7,1986.7 L3397.3,1986.7 C3381.6,1986.7 3366.6,1993.6 3356.5,2005.6 L3244.2,2138.4 C3236.0,2148.0 3231.5,2160.3 3231.5,2173.0 L3231.5,2707.8 C3231.5,2719.3 3235.2,2730.5 3242.1,2739.7 L3306.9,2827.1 C3313.8,2836.4 3317.5,2847.5 3317.5,2859.0 L3317.5,3965.8 C3317.5,3995.4 3293.5,4019.3 3263.9,4019.3 L3179.8,4019.3 C3164.7,4019.3 3150.4,4025.6 3140.2,4036.7 L2961.5,4232.0 C2952.5,4241.9 2947.5,4254.8 2947.5,4268.1 L2947.5,4949.3" />
</g>
<g data-line="9" stroke="#87c9ec" stroke-width="16">
<path d="M5206.5,2508.5 L4901.8,2508.5 C4874.1,2508.5 4847.5,2519.5 4827.8,2539.0 L4367.1,2996.5 C4347.4,3016.0 4320.8,3027.0 4293.1,3027.0 L3679.1,3027.0 C3652.0,3027.0 3625.9,3037.5 3606.4,3056.3 L3443.3,3213.2 C3423.8,3232.0 3397.7,3242.5 3370.5,3242.5 L2178.3,3242.5 C2150.5,3242.5 2123.8,3253.6 2104.1,3273.3 L1956.9,3420.6 C1937.2,3440.3 1910.5,3451.3 1882.7,3451.3 L1196.4,3451.3 C1168.9,3451.3 1142.5,3462.1 1122.9,3481.3 L676.9,3918.5 C657.2,3937.8 645.9,3964.1 645.5,3991.8 L640.2,4316.1 C639.7,4343.4 628.7,4369.4 609.4,4388.7 L336.8,4660.7" />
</g>
<g data-line="10" stroke="#c6afd3" stroke-width="16">
<path d="M4855.5,1204.8 L4032.2,1204.8 C4010.7,1204.8 3990.3,1213.9 3976.0,1229.8 L3910.9,1302.1 C3898.4,1316.0 3891.5,1334.0 3891.5,1352.7 L3891.5,1740.7 C3891.5,1760.7 3883.5,1780.0 3869.4,1794.2 L3485.5,2178.3 C3471.3,2192.5 3463.3,2211.8 3463.3,2231.8 L3463.3,2910.2 C3463.3,2931.1 3454.7,2951.1 3439.4,2965.4 L3358.9,3040.9 C3344.9,3054.1 3326.4,3061.4 3307.2,3061.4 L2937.5,3061.4 C2917.6,3061.4 2898.6,3053.6 2884.4,3039.6 L2860.7,3016.3 C2846.6,3002.4 2828.8,2987.8 2808.9,2987.8 C2791.4,2987.8 2773.0,3000.7 2759.5,3011.8 L2717.3,3046.7 C2703.8,3057.8 2687.0,3063.9 2669.6,3064.0 L2152.4,3066.9 C2131.4,3067.0 2111.3,3058.4 2096.9,3043.2 L1937.3,2873.9 C1923.0,2858.7 1903.1,2850.1 1882.2,2850.1 L977.2,2850.1" />
<path d="M1670.5,2850.1 L1649.3,2850.1 C1636.6,2850.1 1624.5,2855.1 1615.5,2864.0 L1278.5,3197.6 C1269.5,3206.5 1257.4,3211.5 1244.7,3211.5 L1149.0,3211.5" />
</g>
<g data-line="11" stroke="#861a2a" stroke-width="16">
<path d="M4618.7,4542.0 L4348.5,4301.2 L3248.1,4301.2 C3228.5,4301.2 3209.7,4293.4 3195.8,4279.5 L3075.9,4159.6 C3062.1,4145.7 3043.3,4138.0 3023.7,4138.0 L2786.8,4138.0 C2767.2,4138.0 2748.4,4130.2 2734.5,4116.3 L2354.8,3736.6 C2341.1,3722.9 2333.3,3704.3 2333.2,3684.8 L2323.6,2257.7 C2323.4,2238.2 2315.7,2219.6 2301.9,2205.9 L1102.1,1006.1 C1088.3,992.2 1080.5,973.4 1080.5,953.8 L1080.5,190.0" />
<path d="M1158.5,1062.5 L1032.8,1062.5 C1013.7,1062.5 995.4,1070.0 981.8,1083.5 L665.2,1398.0 C651.6,1411.4 633.3,1419.0 614.2,1419.0 L333.5,1419.0" />
</g>
<g data-line="12" stroke="#00785f" stroke-width="16">
<path d="M4860.0,2510.0 L4860.0,2205.7 C4860.0,2180.2 4839.3,2159.5 4813.9,2159.5 L3943.1,2159.5 C3930.9,2159.5 3919.1,2164.4 3910.5,2173.0 L3586.5,2497.0 C3577.8,2505.7 3566.1,2510.6 3553.8,2510.6 L3476.1,2510.6 C3464.8,2510.6 3453.8,2506.4 3445.4,2498.8 L3413.1,2470.0 C3404.7,2462.4 3393.7,2458.2 3382.4,2458.2 L2996.4,2458.2 C2983.5,2458.2 2971.3,2463.5 2962.5,2473.0 L2931.3,2506.7 C2923.4,2515.3 2919.0,2526.5 2919.0,2538.1 L2919.0,2794.0 C2919.0,2805.6 2914.6,2816.7 2906.8,2825.3 L2821.2,2918.3 C2813.3,2926.8 2808.9,2937.9 2808.9,2949.5 L2808.9,3664.5 C2808.9,3690.0 2788.3,3710.6 2762.8,3710.6 L1660.1,3710.6 C1647.9,3710.6 1636.1,3715.5 1627.5,3724.1 L1442.3,3909.3 C1433.7,3918.0 1421.9,3922.8 1409.7,3922.8 L1086.0,3922.8" />
</g>
<g data-line="13" stroke="#e899c0" stroke-width="16">
<path d="M4901.5,4029.3 L4189.9,4029.3 C4164.9,4029.3 4140.9,4019.4 4123.2,4001.7 L4079.8,3958.3 C4062.1,3940.6 4038.1,3930.6 4013.0,3930.6 L3194.3,3930.6 C3142.1,3930.6 3099.9,3888.4 3099.9,3836.2 L3099.9,3089.4 C3099.9,3068.2 3092.8,3047.6 3079.7,3031.0 L3026.4,2963.4 C3013.3,2946.7 3006.2,2926.1 3006.2,2905.0 L3006.2,2553.0 C3006.2,2500.8 2997.3,2458.6 2945.2,2458.6 L1787.3,2458.6 C1762.2,2458.6 1738.2,2448.6 1720.5,2430.9 L1548.5,2258.9 C1530.8,2241.2 1506.8,2231.3 1481.8,2231.3 L870.8,2231.3" />
</g>
<g data-line="14" stroke="#626020" stroke-width="16">
<path d="M743.5,1854.0 L1379.2,1854.0 C1390.9,1854.0 1402.2,1858.6 1410.6,1866.8 L1574.4,2026.7 C1582.8,2034.9 1594.1,2039.5 1605.8,2039.5 L2199.5,2039.5 C2210.8,2039.5 2221.6,2043.7 2229.9,2051.3 L2312.4,2126.8 C2321.3,2135.0 2326.6,2146.4 2327.0,2158.5 L2327.4,2170.0 C2327.8,2181.2 2332.3,2191.8 2340.1,2199.9 L2434.6,2296.9 C2442.8,2305.3 2447.4,2316.6 2447.4,2328.3 L2447.4,2574.0 C2447.4,2586.1 2452.3,2597.8 2461.0,2606.3 L2748.9,2886.3 C2757.3,2894.5 2768.5,2899.1 2780.2,2899.1 L3436.2,2900.8 C3447.9,2900.9 3459.2,2896.3 3467.7,2888.1 L3567.1,2791.8 C3575.4,2783.7 3586.4,2779.2 3598.0,2779.1 L4051.7,2774.7 C4063.7,2774.6 4075.2,2769.6 4083.6,2761.0 L4300.0,2537.4 C4308.3,2528.8 4319.7,2523.9 4331.7,2523.7 L4419.3,2522.5 C4444.4,2522.1 4465.0,2542.4 4465.0,2567.5 L4465.0,2841.4 C4465.0,2866.3 4485.2,2886.5 4510.1,2886.4 L5191.5,2885.0" />
</g>
<g data-line="15" stroke="#cab08d" stroke-width="16">
<path d="M1738.0,958.0 L1839.6,958.0 C1861.2,958.0 1881.9,967.0 1896.6,982.8 L1994.7,1088.2 C2008.1,1102.5 2015.5,1121.4 2015.6,1141.0 L2017.6,2073.5 C2017.7,2092.5 2010.7,2110.9 1998.2,2125.1 L1898.8,2237.9 C1886.3,2252.1 1879.4,2270.5 1879.4,2289.5 L1880.8,2909.9 C1880.8,2927.8 1874.7,2945.2 1863.4,2959.1 L1785.9,3054.6 C1774.6,3068.5 1768.5,3085.8 1768.5,3103.6 L1768.5,3684.2 C1768.5,3704.6 1776.5,3724.2 1790.8,3738.7 L2080.2,4033.3 C2094.5,4047.8 2102.5,4067.4 2102.5,4087.8 L2102.5,5454.0" />
</g>
<g data-line="16" stroke="#98d1c0" stroke-width="16">
<path d="M4274.5,3370.4 L4274.5,3515.7 C4274.5,3526.9 4278.1,3537.7 4284.8,3546.6 L4340.2,3620.6 C4346.9,3629.5 4350.5,3640.4 4350.5,3651.5 L4350.5,5394.5 C4350.5,5422.9 4373.6,5446.0 4402.0,5446.0 L4842.1,5446.0 C4855.8,5446.0 4868.9,5451.4 4878.6,5461.1 L5218.5,5802.0" />
</g>
<g data-line="17" stroke="#bc7970" stroke-width="16">
<path d="M970.2,2801.0 L780.3,2801.0 C759.5,2801.0 739.6,2809.3 724.9,2823.9 L573.1,2975.7 C558.4,2990.4 550.2,3010.3 550.2,3031.1 L548.1,3716.0 C548.1,3734.6 541.5,3752.5 529.5,3766.7 L429.2,3877.3" />
</g>
<g data-line="18" stroke="#c4984f" stroke-width="16">
<path d="M3519.3,1282.0 L3519.3,1506.2 C3519.3,1520.7 3525.0,1534.6 3535.3,1544.8 L3940.5,1950.1 C3950.8,1960.3 3956.5,1974.2 3956.5,1988.7 L3956.5,2134.6 C3956.5,2149.0 3962.3,2162.9 3972.5,2173.2 L4181.7,2382.4 C4192.0,2392.6 4197.7,2406.5 4197.7,2421.0 L4197.7,3004.5 C4197.7,3018.9 4203.4,3032.7 4213.5,3043.0 L4245.7,3075.4 C4255.8,3085.6 4261.5,3099.4 4261.5,3113.8 L4261.5,3650.8 C4261.5,3665.1 4255.9,3678.8 4245.9,3689.0 L4179.1,3757.1 C4169.1,3767.3 4163.5,3781.0 4163.5,3795.3 L4163.5,4153.6 C4163.5,4166.9 4158.6,4179.8 4149.8,4189.8 L4080.1,4268.5 C4071.2,4278.5 4066.4,4291.4 4066.4,4304.7 L4066.4,5487.3" />
</g>
<g data-line="AL" stroke="#0d7370" stroke-width="16">
<path d="M4313.8,3429.4 C4332.6,3448.1 4348.8,3470.6 4370.0,3486.6 C4388.1,3500.3 4410.6,3510.6 4433.3,3513.4 C4458.4,3516.4 4484.2,3513.0 4509.5,3513.0 C4537.7,3513.0 4560.5,3535.9 4560.5,3564.0 L4560.5,4074.0 C4560.5,4102.2 4583.3,4125.0 4611.5,4125.0 L4886.5,4125.0 C4914.7,4125.0 4937.5,4147.9 4937.5,4176.0 L4937.5,4276.5 L4937.5,4445.3 C4937.5,4474.4 4933.3,4508.0 4947.4,4534.4 C4960.6,4559.0 4982.8,4577.1 5002.3,4596.4 C5027.9,4621.8 5053.5,4647.1 5079.0,4672.4 C5116.2,4709.2 5158.8,4746.7 5158.8,4803.7 L5158.8,4845.4 L5158.8,4918.1 L5158.8,4919.2" />
</g>
<g data-line="Pujiang" stroke="#b6b6b6" stroke-width="16">
<path d="M2949.5,4953.4 L2985.8,4976.8 C2996.5,4983.7 3008.9,4987.3 3021.6,4987.3 L3078.2,4987.3 C3114.6,4987.3 3144.2,5016.9 3144.2,5053.3 L3144.2,5411.4 C3144.2,5447.8 3114.6,5477.4 3078.2,5477.4 L3019.5,5477.4" />
</g>
<g data-line="AL"><path d="M5004.2,4720.3 L4763.7,4439.9 L4775.3,4430.9 L4765.5,4418.2 L4753.3,4427.7 L4722.8,4392.1 C4695.0,4359.7 4654.6,4341.2 4612.0,4341.2 L4567.0,4341.2 L4567.0,4321.3 L4551.0,4321.3 L4551.0,4341.2 L1400.7,4341.2 C1357.9,4341.2 1316.5,4328.5 1281.0,4304.6 L1166.8,4227.7 C1107.5,4187.8 1072.2,4121.3 1072.2,4049.9 L1072.2,2827.6 L1056.2,2827.6 L1056.2,4049.9 C1056.2,4126.6 1094.2,4198.0 1157.8,4240.9 L1272.0,4317.9 C1310.2,4343.6 1354.7,4357.2 1400.7,4357.2 L2841.6,4357.2 L2841.6,4372.2 L2857.6,4372.2 L2857.6,4357.2 L4612.0,4357.2 C4650.0,4357.2 4685.9,4373.7 4710.6,4402.5 L4992.0,4730.6 L5114.7,4876.7 L5127.0,4866.5 L5004.2,4720.3 Z" fill="white" stroke="#0d7370" stroke-width="2" fill-rule="evenodd" /></g>
<g data-line="ML"><path d="M4310.2,3433.7 C4329.0,3452.4 4345.1,3474.9 4366.3,3490.9 C4384.5,3504.6 4406.9,3514.9 4429.6,3517.7 C4454.8,3520.7 4480.6,3517.3 4505.8,3517.3 C4534.0,3517.3 4556.8,3540.2 4556.8,3568.3 L4556.8,4078.3 C4556.8,4106.5 4579.7,4129.3 4607.8,4129.3 L4882.8,4129.3 C4911.0,4129.3 4933.8,4152.2 4933.8,4180.3 L4933.8,4280.8 L4933.8,4449.6 C4933.8,4478.7 4929.6,4512.3 4943.8,4538.7 C4957.0,4563.3 4979.1,4581.4 4998.7,4600.8 C5024.2,4626.1 5049.8,4651.4 5075.4,4676.7 C5112.6,4713.6 5155.2,4751.0 5155.2,4808.0 L5155.2,4849.7 L5155.2,4922.4 L5155.2,4923.5" fill="none" stroke="#ef7002" stroke-width="8" /></g>
</g>
<g id="line-extensions" fill="none" stroke-linecap="round">
<line data-line="17" x1="445.1" y1="3877.5" x2="360.0" y2="3972.0" stroke="#bc7970" stroke-width="16" />
<line data-line="18" x1="3519.3" y1="1282.0" x2="3387.0" y2="1183.0" stroke="#c4984f" stroke-width="16" />
<line data-line="18" x1="3387.0" y1="1183.0" x2="3255.0" y2="1084.0" stroke="#c4984f" stroke-width="16" />
<line data-line="18" x1="3255.0" y1="1084.0" x2="3123.0" y2="985.0" stroke="#c4984f" stroke-width="16" />
<line data-line="18" x1="3123.0" y1="985.0" x2="2989.0" y2="884.0" stroke="#c4984f" stroke-width="16" />
<line data-line="18" x1="2989.0" y1="884.0" x2="2857.0" y2="785.0" stroke="#c4984f" stroke-width="16" />
</g>
<g id="transfers" fill="none">
<path data-tgroup="T001" d="M1632.6,4168.2 L1615.8,4168.2 C1607.8,4168.2 1601.3,4161.7 1601.3,4153.7 C1601.3,4145.7 1607.8,4139.2 1615.8,4139.2 L1632.6,4139.2 C1640.6,4139.2 1647.1,4145.7 1647.1,4153.7 C1647.1,4161.7 1640.6,4168.2 1632.6,4168.2 Z" stroke="#333" stroke-width="6" />
<path data-tgroup="T002" d="M1923.2,3876.5 L1906.5,3876.5 C1898.5,3876.5 1892.0,3870.0 1892.0,3862.0 C1892.0,3854.0 1898.5,3847.5 1906.5,3847.5 L1923.2,3847.5 C1931.3,3847.5 1937.8,3854.0 1937.8,3862.0 C1937.8,3870.0 1931.3,3876.5 1923.2,3876.5 Z" stroke="#333" stroke-width="6" />
<path data-tgroup="T003" d="M2069.2,3722.9 L2059.0,3722.9 C2051.0,3722.9 2044.5,3716.4 2044.5,3708.4 C2044.5,3700.4 2051.0,3693.9 2059.0,3693.9 L2069.2,3693.9 C2077.2,3693.9 2083.7,3700.4 2083.7,3708.4 C2083.7,3716.4 2077.2,3722.9 2069.2,3722.9 Z" stroke="#333" stroke-width="6" />
<path data-tgroup="T004" d="M2163.6,3429.2 L2153.4,3429.2 C2145.4,3429.2 2138.9,3422.7 2138.9,3414.7 C2138.9,3406.7 2145.4,3400.2 2153.4,3400.2 L2163.6,3400.2 C2171.6,3400.2 2178.1,3406.7 2178.1,3414.7 C2178.1,3422.7 2171.6,3429.2 2163.6,3429.2 Z" stroke="#333" stroke-width="6" />
<path data-tgroup="T005" d="M2341.0,3257.0 L2310.6,3257.0 C2302.6,3257.0 2296.1,3250.5 2296.1,3242.5 C2296.1,3234.5 2302.6,3228.0 2310.6,3228.0 L2341.0,3228.0 C2349.0,3228.0 2355.5,3234.5 2355.5,3242.5 C2355.5,3250.5 2349.0,3257.0 2341.0,3257.0 Z" stroke="#333" stroke-width="6" />
<path data-tgroup="T006" d="M2590.5,2994.5 L2580.3,2994.5 C2572.3,2994.5 2565.8,2988.0 2565.8,2980.0 C2565.8,2972.0 2572.3,2965.5 2580.3,2965.5 L2590.5,2965.5 C2598.5,2965.5 2605.0,2972.0 2605.0,2980.0 C2605.0,2988.0 2598.5,2994.5 2590.5,2994.5 Z" stroke="#333" stroke-width="6" />
<path data-tgroup="T007" d="M2824.1,3000.0 L2793.8,3000.0 C2785.8,3000.0 2779.3,2993.5 2779.3,2985.5 C2779.3,2977.5 2785.8,2971.0 2793.8,2971.0 L2824.1,2971.0 C2832.1,2971.0 2838.6,2977.5 2838.6,2985.5 C2838.6,2993.5 2832.1,3000.0 2824.1,3000.0 Z" stroke="#333" stroke-width="6" />
<path data-tgroup="T008" d="M3169.5,2913.5 L3159.3,2913.5 C3151.3,2913.5 3144.8,2907.0 3144.8,2899.0 C3144.8,2891.0 3151.3,2884.5 3159.3,2884.5 L3169.5,2884.5 C3177.5,2884.5 3184.0,2891.0 3184.0,2899.0 C3184.0,2907.0 3177.5,2913.5 3169.5,2913.5 Z" stroke="#333" stroke-width="6" />
<path data-tgroup="T009" d="M3239.2,2741.4 L3208.8,2741.4 C3200.8,2741.4 3194.3,2734.9 3194.3,2726.9 C3194.3,2718.9 3200.8,2712.4 3208.8,2712.4 L3239.2,2712.4 C3247.2,2712.4 3253.7,2718.9 3253.7,2726.9 C3253.7,2734.9 3247.2,2741.4 3239.2,2741.4 Z" stroke="#333" stroke-width="6" />
<path data-tgroup="T010" d="M3007.2,2473.1 L2976.8,2473.1 C2968.8,2473.1 2962.3,2466.6 2962.3,2458.6 C2962.3,2450.6 2968.8,2444.1 2976.8,2444.1 L3007.2,2444.1 C3015.2,2444.1 3021.7,2450.6 3021.7,2458.6 C3021.7,2466.6 3015.2,2473.1 3007.2,2473.1 Z" stroke="#333" stroke-width="6" />
<path data-tgroup="T011" d="M2993.5,2252.1H3012.5V2277.8H2993.5Z M3017.3,2283.6 C3017.3,2275.5 3010.8,2269.0 3002.8,2269.0 C2994.7,2269.0 2988.2,2275.5 2988.2,2283.6 C2988.2,2291.6 2994.7,2298.1 3002.8,2298.1 C3010.8,2298.1 3017.3,2291.6 3017.3,2283.6 Z M2988.3,2219.1 L2988.3,2249.5 C2988.3,2257.5 2994.7,2264.0 3002.8,2264.0 C3010.8,2264.0 3017.3,2257.5 3017.3,2249.5 L3017.3,2219.1 C3017.3,2211.1 3010.8,2204.6 3002.8,2204.6 C2994.7,2204.6 2988.3,2211.1 2988.3,2219.1 Z" stroke="#333" stroke-width="6" />
<path data-tgroup="T012" d="M4251.9,3380.4 L4251.9,3350.0 C4251.9,3342.0 4258.4,3335.5 4266.4,3335.5 C4274.4,3335.5 4280.9,3342.0 4280.9,3350.0 L4280.9,3380.4 C4280.9,3388.4 4274.4,3394.9 4266.4,3394.9 C4258.4,3394.9 4251.9,3388.4 4251.9,3380.4 Z" stroke="#333" stroke-width="6" />
<path data-tgroup="T013" d="M3956.4,3044.4 L3926.0,3044.4 C3918.0,3044.4 3911.5,3037.9 3911.5,3029.9 C3911.5,3021.9 3918.0,3015.4 3926.0,3015.4 L3956.4,3015.4 C3964.4,3015.4 3970.9,3021.9 3970.9,3029.9 C3970.9,3037.9 3964.4,3044.4 3956.4,3044.4 Z" stroke="#333" stroke-width="6" />
<path data-tgroup="T014" d="M3780.2,2775.4H3799.2V2801.1H3780.2Z M3804.0,2769.7 C3804.0,2777.7 3797.5,2784.2 3789.4,2784.2 C3781.4,2784.2 3774.9,2777.7 3774.9,2769.7 C3774.9,2761.6 3781.4,2755.1 3789.4,2755.1 C3797.5,2755.1 3804.0,2761.6 3804.0,2769.7 Z M3804.0,2806.9 C3804.0,2814.9 3797.5,2821.4 3789.4,2821.4 C3781.4,2821.4 3774.9,2814.9 3774.9,2806.9 C3774.9,2798.8 3781.4,2792.3 3789.4,2792.3 C3797.5,2792.3 3804.0,2798.8 3804.0,2806.9 Z" stroke="#333" stroke-width="6" />
<path data-tgroup="T015" d="M3693.0,2793.8 L3682.8,2793.8 C3674.8,2793.8 3668.3,2787.3 3668.3,2779.3 C3668.3,2771.3 3674.8,2764.8 3682.8,2764.8 L3693.0,2764.8 C3701.0,2764.8 3707.5,2771.3 3707.5,2779.3 C3707.5,2787.3 3701.0,2793.8 3693.0,2793.8 Z" stroke="#333" stroke-width="6" />
<path data-tgroup="T016" d="M3468.5,2743.3 L3458.3,2743.3 C3450.3,2743.3 3443.8,2736.8 3443.8,2728.8 C3443.8,2720.8 3450.3,2714.3 3458.3,2714.3 L3468.5,2714.3 C3476.5,2714.3 3483.0,2720.8 3483.0,2728.8 C3483.0,2736.8 3476.5,2743.3 3468.5,2743.3 Z" stroke="#333" stroke-width="6" />
<path data-tgroup="T017" d="M3003.2,2742.0 C2995.2,2742.0 2988.7,2735.4 2988.7,2727.4 C2988.7,2719.3 2995.2,2712.8 3003.2,2712.8 C3011.3,2712.8 3017.8,2719.3 3017.8,2727.4 C3017.8,2735.4 3011.3,2742.0 3003.2,2742.0 Z" stroke="#333" stroke-width="6" />
<path data-tgroup="T018" d="M2917.2,2741.7 C2909.2,2741.7 2902.7,2735.2 2902.7,2727.1 C2902.7,2719.1 2909.2,2712.6 2917.2,2712.6 C2925.3,2712.6 2931.8,2719.1 2931.8,2727.1 C2931.8,2735.2 2925.3,2741.7 2917.2,2741.7 Z" stroke="#333" stroke-width="6" />
<path data-tgroup="T019" d="M2600.6,2741.0 L2570.2,2741.0 C2562.2,2741.0 2555.7,2734.5 2555.7,2726.5 C2555.7,2718.5 2562.2,2712.0 2570.2,2712.0 L2600.6,2712.0 C2608.6,2712.0 2615.1,2718.5 2615.1,2726.5 C2615.1,2734.5 2608.6,2741.0 2600.6,2741.0 Z" stroke="#333" stroke-width="6" />
<path data-tgroup="T020" d="M2328.8,2743.3 L2318.6,2743.3 C2310.6,2743.3 2304.1,2736.8 2304.1,2728.8 C2304.1,2720.8 2310.6,2714.3 2318.6,2714.3 L2328.8,2714.3 C2336.8,2714.3 2343.3,2720.8 2343.3,2728.8 C2343.3,2736.8 2336.8,2743.3 2328.8,2743.3 Z" stroke="#333" stroke-width="6" />
<path data-tgroup="T021" d="M2151.0,2741.0 L2120.6,2741.0 C2112.6,2741.0 2106.1,2734.5 2106.1,2726.5 C2106.1,2718.5 2112.6,2712.0 2120.6,2712.0 L2151.0,2712.0 C2159.0,2712.0 2165.5,2718.5 2165.5,2726.5 C2165.5,2734.5 2159.0,2741.0 2151.0,2741.0 Z" stroke="#333" stroke-width="6" />
<path data-tgroup="T022" d="M1895.1,2729.4 C1895.1,2737.5 1888.6,2744.0 1880.6,2744.0 C1872.5,2744.0 1866.0,2737.5 1866.0,2729.4 C1866.0,2721.4 1872.5,2714.9 1880.6,2714.9 C1888.6,2714.9 1895.1,2721.4 1895.1,2729.4 Z" stroke="#333" stroke-width="6" />
<path data-tgroup="T023" d="M1134.8,2821.7H1153.8V2847.3H1134.8Z M1158.6,2815.9 C1158.6,2823.9 1152.1,2830.5 1144.1,2830.5 C1136.0,2830.5 1129.5,2823.9 1129.5,2815.9 C1129.5,2807.9 1136.0,2801.3 1144.1,2801.3 C1152.1,2801.3 1158.6,2807.9 1158.6,2815.9 Z M1158.6,2853.1 C1158.6,2861.2 1152.1,2867.7 1144.1,2867.7 C1136.0,2867.7 1129.5,2861.2 1129.5,2853.1 C1129.5,2845.1 1136.0,2838.6 1144.1,2838.6 C1152.1,2838.6 1158.6,2845.1 1158.6,2853.1 Z" stroke="#333" stroke-width="6" />
<path data-tgroup="T024" d="M962.7,2849.0 L962.7,2800.7 C962.7,2792.7 969.2,2786.2 977.2,2786.2 C985.2,2786.2 991.7,2792.7 991.7,2800.7 L991.7,2849.0 C991.7,2857.0 985.2,2863.5 977.2,2863.5 C969.2,2863.5 962.7,2857.0 962.7,2849.0 Z" stroke="#333" stroke-width="6" />
<path data-tgroup="T025" d="M832.6,2801.1H851.6V2826.8H832.6Z M856.4,2795.3 C856.4,2803.4 849.9,2809.9 841.8,2809.9 C833.8,2809.9 827.3,2803.4 827.3,2795.3 C827.3,2787.3 833.8,2780.7 841.8,2780.7 C849.9,2780.7 856.4,2787.3 856.4,2795.3 Z M856.4,2832.5 C856.4,2840.6 849.9,2847.1 841.8,2847.1 C833.8,2847.1 827.3,2840.6 827.3,2832.5 C827.3,2824.5 833.8,2818.0 841.8,2818.0 C849.9,2818.0 856.4,2824.5 856.4,2832.5 Z" stroke="#333" stroke-width="6" />
<path data-tgroup="T026" d="M2228.5,3722.9 L2218.3,3722.9 C2210.3,3722.9 2203.8,3716.4 2203.8,3708.4 C2203.8,3700.4 2210.3,3693.9 2218.3,3693.9 L2228.5,3693.9 C2236.5,3693.9 2243.0,3700.4 2243.0,3708.4 C2243.0,3716.4 2236.5,3722.9 2228.5,3722.9 Z" stroke="#333" stroke-width="6" />
<path data-tgroup="T027" d="M2150.0,3257.0 L2119.6,3257.0 C2111.6,3257.0 2105.1,3250.5 2105.1,3242.5 C2105.1,3234.5 2111.6,3228.0 2119.6,3228.0 L2150.0,3228.0 C2158.0,3228.0 2164.5,3234.5 2164.5,3242.5 C2164.5,3250.5 2158.0,3257.0 2150.0,3257.0 Z" stroke="#333" stroke-width="6" />
<path data-tgroup="T028" d="M2150.0,3081.6 L2119.6,3081.6 C2111.6,3081.6 2105.1,3075.1 2105.1,3067.1 C2105.1,3059.1 2111.6,3052.6 2119.6,3052.6 L2150.0,3052.6 C2158.0,3052.6 2164.5,3059.1 2164.5,3067.1 C2164.5,3075.1 2158.0,3081.6 2150.0,3081.6 Z" stroke="#333" stroke-width="6" />
<path data-tgroup="T029" d="M2151.0,2912.3 L2120.6,2912.3 C2112.6,2912.3 2106.1,2905.8 2106.1,2897.8 C2106.1,2889.8 2112.6,2883.3 2120.6,2883.3 L2151.0,2883.3 C2159.0,2883.3 2165.5,2889.8 2165.5,2897.8 C2165.5,2905.8 2159.0,2912.3 2151.0,2912.3 Z" stroke="#333" stroke-width="6" />
<path data-tgroup="T030" d="M2151.0,2473.7 L2120.6,2473.7 C2112.6,2473.7 2106.1,2467.2 2106.1,2459.2 C2106.1,2451.2 2112.6,2444.7 2120.6,2444.7 L2151.0,2444.7 C2159.0,2444.7 2165.5,2451.2 2165.5,2459.2 C2165.5,2467.2 2159.0,2473.7 2151.0,2473.7 Z" stroke="#333" stroke-width="6" />
<path data-tgroup="T031" d="M2318.8,2193.2H2337.8V2218.8H2318.8Z M2342.5,2187.4 C2342.5,2195.4 2336.0,2202.0 2328.0,2202.0 C2319.9,2202.0 2313.4,2195.4 2313.4,2187.4 C2313.4,2179.4 2319.9,2172.8 2328.0,2172.8 C2336.0,2172.8 2342.5,2179.4 2342.5,2187.4 Z M2313.5,2251.9 L2313.5,2221.5 C2313.5,2213.5 2320.0,2207.0 2328.0,2207.0 C2336.0,2207.0 2342.5,2213.5 2342.5,2221.5 L2342.5,2251.9 C2342.5,2259.9 2336.0,2266.4 2328.0,2266.4 C2320.0,2266.4 2313.5,2259.9 2313.5,2251.9 Z" stroke="#333" stroke-width="6" />
<path data-tgroup="T032" d="M2571.0,2251.9 L2571.0,2221.5 C2571.0,2213.5 2577.5,2207.0 2585.5,2207.0 C2593.5,2207.0 2600.0,2213.5 2600.0,2221.5 L2600.0,2251.9 C2600.0,2259.9 2593.5,2266.4 2585.5,2266.4 C2577.5,2266.4 2571.0,2259.9 2571.0,2251.9 Z" stroke="#333" stroke-width="6" />
<path data-tgroup="T033" d="M2761.0,2251.9 L2761.0,2221.5 C2761.0,2213.5 2767.5,2207.0 2775.5,2207.0 C2783.5,2207.0 2790.0,2213.5 2790.0,2221.5 L2790.0,2251.9 C2790.0,2259.9 2783.5,2266.4 2775.5,2266.4 C2767.5,2266.4 2761.0,2259.9 2761.0,2251.9 Z" stroke="#333" stroke-width="6" />
<path data-tgroup="T034" d="M3273.3,2251.9 L3273.3,2221.5 C3273.3,2213.5 3279.8,2207.0 3287.8,2207.0 C3295.8,2207.0 3302.3,2213.5 3302.3,2221.5 L3302.3,2251.9 C3302.3,2259.9 3295.8,2266.4 3287.8,2266.4 C3279.8,2266.4 3273.3,2259.9 3273.3,2251.9 Z" stroke="#333" stroke-width="6" />
<path data-tgroup="T035" d="M3377.6,2004.5 L3367.4,2004.5 C3359.4,2004.5 3352.9,1998.0 3352.9,1990.0 C3352.9,1982.0 3359.4,1975.5 3367.4,1975.5 L3377.6,1975.5 C3385.6,1975.5 3392.1,1982.0 3392.1,1990.0 C3392.1,1998.0 3385.6,2004.5 3377.6,2004.5 Z" stroke="#333" stroke-width="6" />
<path data-tgroup="T036" d="M3524.4,1296.5 L3514.2,1296.5 C3506.2,1296.5 3499.7,1290.0 3499.7,1282.0 C3499.7,1274.0 3506.2,1267.5 3514.2,1267.5 L3524.4,1267.5 C3532.4,1267.5 3538.9,1274.0 3538.9,1282.0 C3538.9,1290.0 3532.4,1296.5 3524.4,1296.5 Z" stroke="#333" stroke-width="6" />
<path data-tgroup="T037" d="M3468.4,2263.3 L3458.2,2263.3 C3450.2,2263.3 3443.7,2256.8 3443.7,2248.8 C3443.7,2240.8 3450.2,2234.3 3458.2,2234.3 L3468.4,2234.3 C3476.4,2234.3 3482.9,2240.8 3482.9,2248.8 C3482.9,2256.8 3476.4,2263.3 3468.4,2263.3 Z" stroke="#333" stroke-width="6" />
<path data-tgroup="T038" d="M3851.2,2263.3 L3841.0,2263.3 C3833.0,2263.3 3826.5,2256.8 3826.5,2248.8 C3826.5,2240.8 3833.0,2234.3 3841.0,2234.3 L3851.2,2234.3 C3859.2,2234.3 3865.7,2240.8 3865.7,2248.8 C3865.7,2256.8 3859.2,2263.3 3851.2,2263.3 Z" stroke="#333" stroke-width="6" />
<path data-tgroup="T039" d="M3948.3,2793.8 L3938.2,2793.8 C3930.2,2793.8 3923.7,2787.3 3923.7,2779.3 C3923.7,2771.3 3930.2,2764.8 3938.2,2764.8 L3948.3,2764.8 C3956.3,2764.8 3962.8,2771.3 3962.8,2779.3 C3962.8,2787.3 3956.3,2793.8 3948.3,2793.8 Z" stroke="#333" stroke-width="6" />
<path data-tgroup="T040" d="M3769.3,3496.2 L3759.1,3496.2 C3751.1,3496.2 3744.6,3489.7 3744.6,3481.7 C3744.6,3473.7 3751.1,3467.2 3759.1,3467.2 L3769.3,3467.2 C3777.3,3467.2 3783.8,3473.7 3783.8,3481.7 C3783.8,3489.7 3777.3,3496.2 3769.3,3496.2 Z" stroke="#333" stroke-width="6" />
<path data-tgroup="T041" d="M3323.6,3496.2 L3313.4,3496.2 C3305.4,3496.2 3298.9,3489.7 3298.9,3481.7 C3298.9,3473.7 3305.4,3467.2 3313.4,3467.2 L3323.6,3467.2 C3331.6,3467.2 3338.1,3473.7 3338.1,3481.7 C3338.1,3489.7 3331.6,3496.2 3323.6,3496.2 Z" stroke="#333" stroke-width="6" />
<path data-tgroup="T042" d="M2814.1,3496.2 L2803.9,3496.2 C2795.9,3496.2 2789.4,3489.7 2789.4,3481.7 C2789.4,3473.7 2795.9,3467.2 2803.9,3467.2 L2814.1,3467.2 C2822.1,3467.2 2828.6,3473.7 2828.6,3481.7 C2828.6,3489.7 2822.1,3496.2 2814.1,3496.2 Z" stroke="#333" stroke-width="6" />
<path data-tgroup="T043" d="M2590.6,3496.2 L2580.4,3496.2 C2572.4,3496.2 2565.9,3489.7 2565.9,3481.7 C2565.9,3473.7 2572.4,3467.2 2580.4,3467.2 L2590.6,3467.2 C2598.6,3467.2 2605.1,3473.7 2605.1,3481.7 C2605.1,3489.7 2598.6,3496.2 2590.6,3496.2 Z" stroke="#333" stroke-width="6" />
<path data-tgroup="T044" d="M3058.2,4148.9 L3043.5,4148.9 C3035.5,4148.9 3029.0,4142.4 3029.0,4134.4 C3029.0,4126.4 3035.5,4119.9 3043.5,4119.9 L3058.2,4119.9 C3066.2,4119.9 3072.7,4126.4 3072.7,4134.4 C3072.7,4142.4 3066.2,4148.9 3058.2,4148.9 Z" stroke="#333" stroke-width="6" />
<path data-tgroup="T045" d="M3600.5,3942.4 L3590.3,3942.4 C3582.3,3942.4 3575.8,3935.9 3575.8,3927.9 C3575.8,3919.9 3582.3,3913.4 3590.3,3913.4 L3600.5,3913.4 C3608.5,3913.4 3615.0,3919.9 3615.0,3927.9 C3615.0,3935.9 3608.5,3942.4 3600.5,3942.4 Z" stroke="#333" stroke-width="6" />
<path data-tgroup="T046" d="M3600.5,3796.4 L3590.3,3796.4 C3582.3,3796.4 3575.8,3789.9 3575.8,3781.9 C3575.8,3773.9 3582.3,3767.4 3590.3,3767.4 L3600.5,3767.4 C3608.5,3767.4 3615.0,3773.9 3615.0,3781.9 C3615.0,3789.9 3608.5,3796.4 3600.5,3796.4 Z" stroke="#333" stroke-width="6" />
<path data-tgroup="T047" d="M4200.5,2786.2 L4190.3,2786.2 C4182.3,2786.2 4175.8,2779.7 4175.8,2771.7 C4175.8,2763.7 4182.3,2757.2 4190.3,2757.2 L4200.5,2757.2 C4208.5,2757.2 4215.0,2763.7 4215.0,2771.7 C4215.0,2779.7 4208.5,2786.2 4200.5,2786.2 Z" stroke="#333" stroke-width="6" />
<path data-tgroup="T048" d="M4441.1,2541.2 L4430.9,2541.2 C4422.9,2541.2 4416.4,2534.7 4416.4,2526.7 C4416.4,2518.7 4422.9,2512.2 4430.9,2512.2 L4441.1,2512.2 C4449.1,2512.2 4455.6,2518.7 4455.6,2526.7 C4455.6,2534.7 4449.1,2541.2 4441.1,2541.2 Z" stroke="#333" stroke-width="6" />
<path data-tgroup="T049" d="M4546.2,2168.7 L4536.0,2168.7 C4528.0,2168.7 4521.5,2162.2 4521.5,2154.2 C4521.5,2146.2 4528.0,2139.7 4536.0,2139.7 L4546.2,2139.7 C4554.2,2139.7 4560.7,2146.2 4560.7,2154.2 C4560.7,2162.2 4554.2,2168.7 4546.2,2168.7 Z" stroke="#333" stroke-width="6" />
<path data-tgroup="T050" d="M4670.9,1219.3 L4660.7,1219.3 C4652.7,1219.3 4646.2,1212.8 4646.2,1204.8 C4646.2,1196.8 4652.7,1190.3 4660.7,1190.3 L4670.9,1190.3 C4678.9,1190.3 4685.4,1196.8 4685.4,1204.8 C4685.4,1212.8 4678.9,1219.3 4670.9,1219.3 Z" stroke="#333" stroke-width="6" />
<path data-tgroup="T051" d="M3323.6,3796.4 L3313.4,3796.4 C3305.4,3796.4 3298.9,3789.9 3298.9,3781.9 C3298.9,3773.9 3305.4,3767.4 3313.4,3767.4 L3323.6,3767.4 C3331.6,3767.4 3338.1,3773.9 3338.1,3781.9 C3338.1,3789.9 3331.6,3796.4 3323.6,3796.4 Z" stroke="#333" stroke-width="6" />
<path data-tgroup="T052" d="M3090.4,3786.5H3109.4V3812.2H3090.4Z M3114.2,3780.7 C3114.2,3788.8 3107.7,3795.3 3099.6,3795.3 C3091.6,3795.3 3085.1,3788.8 3085.1,3780.7 C3085.1,3772.7 3091.6,3766.2 3099.6,3766.2 C3107.7,3766.2 3114.2,3772.7 3114.2,3780.7 Z M3114.2,3817.9 C3114.2,3826.0 3107.7,3832.5 3099.6,3832.5 C3091.6,3832.5 3085.1,3826.0 3085.1,3817.9 C3085.1,3809.9 3091.6,3803.4 3099.6,3803.4 C3107.7,3803.4 3114.2,3809.9 3114.2,3817.9 Z" stroke="#333" stroke-width="6" />
<path data-tgroup="T053" d="M2591.9,3722.3 L2581.7,3722.3 C2573.7,3722.3 2567.2,3715.8 2567.2,3707.8 C2567.2,3699.7 2573.7,3693.3 2581.7,3693.3 L2591.9,3693.3 C2599.9,3693.3 2606.4,3699.7 2606.4,3707.8 C2606.4,3715.8 2599.9,3722.3 2591.9,3722.3 Z" stroke="#333" stroke-width="6" />
<path data-tgroup="T054" d="M2591.9,3257.0 L2581.7,3257.0 C2573.7,3257.0 2567.2,3250.5 2567.2,3242.5 C2567.2,3234.5 2573.7,3228.0 2581.7,3228.0 L2591.9,3228.0 C2599.9,3228.0 2606.4,3234.5 2606.4,3242.5 C2606.4,3250.5 2599.9,3257.0 2591.9,3257.0 Z" stroke="#333" stroke-width="6" />
<path data-tgroup="T055" d="M2592.5,2472.7 L2582.3,2472.7 C2574.3,2472.7 2567.8,2466.2 2567.8,2458.2 C2567.8,2450.2 2574.3,2443.7 2582.3,2443.7 L2592.5,2443.7 C2600.5,2443.7 2607.0,2450.2 2607.0,2458.2 C2607.0,2466.2 2600.5,2472.7 2592.5,2472.7 Z" stroke="#333" stroke-width="6" />
<path data-tgroup="T056" d="M1743.1,972.5 L1732.9,972.5 C1724.9,972.5 1718.4,966.0 1718.4,958.0 C1718.4,950.0 1724.9,943.5 1732.9,943.5 L1743.1,943.5 C1751.1,943.5 1757.6,950.0 1757.6,958.0 C1757.6,966.0 1751.1,972.5 1743.1,972.5 Z" stroke="#333" stroke-width="6" />
<path data-tgroup="T057" d="M3957.2,1974.9 L3947.0,1974.9 C3939.0,1974.9 3932.5,1968.4 3932.5,1960.4 C3932.5,1952.4 3939.0,1945.9 3947.0,1945.9 L3957.2,1945.9 C3965.2,1945.9 3971.7,1952.4 3971.7,1960.4 C3971.7,1968.4 3965.2,1974.9 3957.2,1974.9 Z" stroke="#333" stroke-width="6" />
<path data-tgroup="T058" d="M3686.1,2004.5 L3676.0,2004.5 C3667.9,2004.5 3661.5,1998.0 3661.5,1990.0 C3661.5,1982.0 3667.9,1975.5 3676.0,1975.5 L3686.1,1975.5 C3694.1,1975.5 3700.6,1982.0 3700.6,1990.0 C3700.6,1998.0 3694.1,2004.5 3686.1,2004.5 Z" stroke="#333" stroke-width="6" />
<path data-tgroup="T059" d="M3238.6,2472.7 L3228.4,2472.7 C3220.4,2472.7 3213.9,2466.2 3213.9,2458.2 C3213.9,2450.2 3220.4,2443.7 3228.4,2443.7 L3238.6,2443.7 C3246.6,2443.7 3253.1,2450.2 3253.1,2458.2 C3253.1,2466.2 3246.6,2472.7 3238.6,2472.7 Z" stroke="#333" stroke-width="6" />
<path data-tgroup="T060" d="M3322.6,2913.5 L3312.4,2913.5 C3304.4,2913.5 3297.9,2907.0 3297.9,2899.0 C3297.9,2891.0 3304.4,2884.5 3312.4,2884.5 L3322.6,2884.5 C3330.6,2884.5 3337.1,2891.0 3337.1,2899.0 C3337.1,2907.0 3330.6,2913.5 3322.6,2913.5 Z" stroke="#333" stroke-width="6" />
<path data-tgroup="T061" d="M3322.6,3075.9 L3312.4,3075.9 C3304.4,3075.9 3297.9,3069.4 3297.9,3061.4 C3297.9,3053.4 3304.4,3046.9 3312.4,3046.9 L3322.6,3046.9 C3330.6,3046.9 3337.1,3053.4 3337.1,3061.4 C3337.1,3069.4 3330.6,3075.9 3322.6,3075.9 Z" stroke="#333" stroke-width="6" />
<path data-tgroup="T062" d="M3322.6,3257.0 L3312.4,3257.0 C3304.4,3257.0 3297.9,3250.5 3297.9,3242.5 C3297.9,3234.5 3304.4,3228.0 3312.4,3228.0 L3322.6,3228.0 C3330.6,3228.0 3337.1,3234.5 3337.1,3242.5 C3337.1,3250.5 3330.6,3257.0 3322.6,3257.0 Z" stroke="#333" stroke-width="6" />
<path data-tgroup="T063" d="M3322.6,3943.8 L3312.4,3943.8 C3304.4,3943.8 3297.9,3937.3 3297.9,3929.3 C3297.9,3921.2 3304.4,3914.8 3312.4,3914.8 L3322.6,3914.8 C3330.6,3914.8 3337.1,3921.2 3337.1,3929.3 C3337.1,3937.3 3330.6,3943.8 3322.6,3943.8 Z" stroke="#333" stroke-width="6" />
<path data-tgroup="T064" d="M2956.8,4967.9 L2942.2,4967.9 C2934.2,4967.9 2927.7,4961.4 2927.7,4953.4 C2927.7,4945.4 2934.2,4938.9 2942.2,4938.9 L2956.8,4938.9 C2964.8,4938.9 2971.3,4945.4 2971.3,4953.4 C2971.3,4961.4 2964.8,4967.9 2956.8,4967.9 Z" stroke="#333" stroke-width="6" />
<path data-tgroup="T065" d="M4865.1,2526.0 L4854.9,2526.0 C4846.9,2526.0 4840.4,2519.5 4840.4,2511.5 C4840.4,2503.5 4846.9,2497.0 4854.9,2497.0 L4865.1,2497.0 C4873.1,2497.0 4879.6,2503.5 4879.6,2511.5 C4879.6,2519.5 4873.1,2526.0 4865.1,2526.0 Z" stroke="#333" stroke-width="6" />
<path data-tgroup="T066" d="M4493.8,2891.4 L4483.6,2891.4 C4475.6,2891.4 4469.1,2884.9 4469.1,2876.9 C4469.1,2868.9 4475.6,2862.4 4483.6,2862.4 L4493.8,2862.4 C4501.8,2862.4 4508.3,2868.9 4508.3,2876.9 C4508.3,2884.9 4501.8,2891.4 4493.8,2891.4 Z" stroke="#333" stroke-width="6" />
<path data-tgroup="T067" d="M4202.2,3044.5 L4192.0,3044.5 C4184.0,3044.5 4177.5,3038.0 4177.5,3030.0 C4177.5,3022.0 4184.0,3015.5 4192.0,3015.5 L4202.2,3015.5 C4210.2,3015.5 4216.7,3022.0 4216.7,3030.0 C4216.7,3038.0 4210.2,3044.5 4202.2,3044.5 Z" stroke="#333" stroke-width="6" />
<path data-tgroup="T068" d="M3104.7,3257.0 L3094.5,3257.0 C3086.5,3257.0 3080.0,3250.5 3080.0,3242.5 C3080.0,3234.5 3086.5,3228.0 3094.5,3228.0 L3104.7,3228.0 C3112.7,3228.0 3119.2,3234.5 3119.2,3242.5 C3119.2,3250.5 3112.7,3257.0 3104.7,3257.0 Z" stroke="#333" stroke-width="6" />
<path data-tgroup="T069" d="M2814.1,3257.0 L2803.9,3257.0 C2795.9,3257.0 2789.4,3250.5 2789.4,3242.5 C2789.4,3234.5 2795.9,3228.0 2803.9,3228.0 L2814.1,3228.0 C2822.1,3228.0 2828.6,3234.5 2828.6,3242.5 C2828.6,3250.5 2822.1,3257.0 2814.1,3257.0 Z" stroke="#333" stroke-width="6" />
<path data-tgroup="T070" d="M1773.6,3466.8 L1763.4,3466.8 C1755.4,3466.8 1748.9,3460.3 1748.9,3452.3 C1748.9,3444.3 1755.4,3437.8 1763.4,3437.8 L1773.6,3437.8 C1781.6,3437.8 1788.1,3444.3 1788.1,3452.3 C1788.1,3460.3 1781.6,3466.8 1773.6,3466.8 Z" stroke="#333" stroke-width="6" />
<path data-tgroup="T071" d="M1069.3,3552.4 L1059.1,3552.4 C1051.1,3552.4 1044.6,3545.9 1044.6,3537.9 C1044.6,3529.9 1051.1,3523.4 1059.1,3523.4 L1069.3,3523.4 C1077.3,3523.4 1083.8,3529.9 1083.8,3537.9 C1083.8,3545.9 1077.3,3552.4 1069.3,3552.4 Z" stroke="#333" stroke-width="6" />
<path data-tgroup="T072" d="M3834.6,1853.0 L3824.4,1853.0 C3816.4,1853.0 3809.9,1846.5 3809.9,1838.5 C3809.9,1830.5 3816.4,1824.0 3824.4,1824.0 L3834.6,1824.0 C3842.6,1824.0 3849.1,1830.5 3849.1,1838.5 C3849.1,1846.5 3842.6,1853.0 3834.6,1853.0 Z" stroke="#333" stroke-width="6" />
<path data-tgroup="T073" d="M3468.4,2520.5 L3458.2,2520.5 C3450.2,2520.5 3443.7,2514.0 3443.7,2506.0 C3443.7,2498.0 3450.2,2491.5 3458.2,2491.5 L3468.4,2491.5 C3476.4,2491.5 3482.9,2498.0 3482.9,2506.0 C3482.9,2514.0 3476.4,2520.5 3468.4,2520.5 Z" stroke="#333" stroke-width="6" />
<path data-tgroup="T074" d="M3470.3,2903.9 L3460.1,2903.9 C3452.1,2903.9 3445.6,2897.4 3445.6,2889.4 C3445.6,2881.4 3452.1,2874.9 3460.1,2874.9 L3470.3,2874.9 C3478.3,2874.9 3484.8,2881.4 3484.8,2889.4 C3484.8,2897.4 3478.3,2903.9 3470.3,2903.9 Z" stroke="#333" stroke-width="6" />
<path data-tgroup="T075" d="M3101.3,3077.3 L3091.1,3077.3 C3083.1,3077.3 3076.6,3070.8 3076.6,3062.8 C3076.6,3054.8 3083.1,3048.3 3091.1,3048.3 L3101.3,3048.3 C3109.3,3048.3 3115.8,3054.8 3115.8,3062.8 C3115.8,3070.8 3109.3,3077.3 3101.3,3077.3 Z" stroke="#333" stroke-width="6" />
<path data-tgroup="T076" d="M2328.8,3077.3 L2318.6,3077.3 C2310.6,3077.3 2304.1,3070.8 2304.1,3062.8 C2304.1,3054.8 2310.6,3048.3 2318.6,3048.3 L2328.8,3048.3 C2336.8,3048.3 2343.3,3054.8 2343.3,3062.8 C2343.3,3070.8 2336.8,3077.3 2328.8,3077.3 Z" stroke="#333" stroke-width="6" />
<path data-tgroup="T077" d="M4355.5,4316.8 L4345.3,4316.8 C4337.3,4316.8 4330.8,4310.4 4330.8,4302.3 C4330.8,4294.3 4337.3,4287.8 4345.3,4287.8 L4355.5,4287.8 C4363.5,4287.8 4370.0,4294.3 4370.0,4302.3 C4370.0,4310.4 4363.5,4316.8 4355.5,4316.8 Z" stroke="#333" stroke-width="6" />
<path data-tgroup="T078" d="M4071.5,4316.8 L4061.3,4316.8 C4053.3,4316.8 4046.8,4310.4 4046.8,4302.3 C4046.8,4294.3 4053.3,4287.8 4061.3,4287.8 L4071.5,4287.8 C4079.5,4287.8 4086.0,4294.3 4086.0,4302.3 C4086.0,4310.4 4079.5,4316.8 4071.5,4316.8 Z" stroke="#333" stroke-width="6" />
<path data-tgroup="T079" d="M2333.7,3722.9 L2319.0,3722.9 C2311.0,3722.9 2304.5,3716.4 2304.5,3708.4 C2304.5,3700.4 2311.0,3693.9 2319.0,3693.9 L2333.7,3693.9 C2341.7,3693.9 2348.2,3700.4 2348.2,3708.4 C2348.2,3716.4 2341.7,3722.9 2333.7,3722.9 Z" stroke="#333" stroke-width="6" />
<path data-tgroup="T080" d="M2329.8,2472.7 L2319.6,2472.7 C2311.6,2472.7 2305.1,2466.2 2305.1,2458.2 C2305.1,2450.2 2311.6,2443.7 2319.6,2443.7 L2329.8,2443.7 C2337.8,2443.7 2344.3,2450.2 2344.3,2458.2 C2344.3,2466.2 2337.8,2472.7 2329.8,2472.7 Z" stroke="#333" stroke-width="6" />
<path data-tgroup="T081" d="M2149.8,2055.2 L2139.6,2055.2 C2131.6,2055.2 2125.1,2048.7 2125.1,2040.7 C2125.1,2032.7 2131.6,2026.2 2139.6,2026.2 L2149.8,2026.2 C2157.8,2026.2 2164.3,2032.7 2164.3,2040.7 C2164.3,2048.7 2157.8,2055.2 2149.8,2055.2 Z" stroke="#333" stroke-width="6" />
<path data-tgroup="T082" d="M2022.8,1934.8 L2012.6,1934.8 C2004.6,1934.8 1998.1,1928.3 1998.1,1920.3 C1998.1,1912.3 2004.6,1905.8 2012.6,1905.8 L2022.8,1905.8 C2030.8,1905.8 2037.3,1912.3 2037.3,1920.3 C2037.3,1928.3 2030.8,1934.8 2022.8,1934.8 Z" stroke="#333" stroke-width="6" />
<path data-tgroup="T083" d="M3963.9,2171.7 L3953.7,2171.7 C3945.7,2171.7 3939.2,2165.2 3939.2,2157.2 C3939.2,2149.2 3945.7,2142.7 3953.7,2142.7 L3963.9,2142.7 C3971.9,2142.7 3978.4,2149.2 3978.4,2157.2 C3978.4,2165.2 3971.9,2171.7 3963.9,2171.7 Z" stroke="#333" stroke-width="6" />
<path data-tgroup="T084" d="M1775.5,3722.9 L1765.3,3722.9 C1757.3,3722.9 1750.8,3716.4 1750.8,3708.4 C1750.8,3700.4 1757.3,3693.9 1765.3,3693.9 L1775.5,3693.9 C1783.5,3693.9 1790.0,3700.4 1790.0,3708.4 C1790.0,3716.4 1783.5,3722.9 1775.5,3722.9 Z" stroke="#333" stroke-width="6" />
<path data-tgroup="T085" d="M4355.5,4043.8 L4345.3,4043.8 C4337.3,4043.8 4330.8,4037.3 4330.8,4029.3 C4330.8,4021.3 4337.3,4014.8 4345.3,4014.8 L4355.5,4014.8 C4363.5,4014.8 4370.0,4021.3 4370.0,4029.3 C4370.0,4037.3 4363.5,4043.8 4355.5,4043.8 Z" stroke="#333" stroke-width="6" />
<path data-tgroup="T086" d="M4169.8,4043.8 L4159.6,4043.8 C4151.6,4043.8 4145.1,4037.3 4145.1,4029.3 C4145.1,4021.3 4151.6,4014.8 4159.6,4014.8 L4169.8,4014.8 C4177.8,4014.8 4184.3,4021.3 4184.3,4029.3 C4184.3,4037.3 4177.8,4043.8 4169.8,4043.8 Z" stroke="#333" stroke-width="6" />
<path data-tgroup="T087" d="M2452.5,2472.7 L2442.3,2472.7 C2434.3,2472.7 2427.8,2466.2 2427.8,2458.2 C2427.8,2450.2 2434.3,2443.7 2442.3,2443.7 L2452.5,2443.7 C2460.5,2443.7 2467.0,2450.2 2467.0,2458.2 C2467.0,2466.2 2460.5,2472.7 2452.5,2472.7 Z" stroke="#333" stroke-width="6" />
<path data-tgroup="T088" d="M1881.4,2472.7 L1871.2,2472.7 C1863.2,2472.7 1856.7,2466.2 1856.7,2458.2 C1856.7,2450.2 1863.2,2443.7 1871.2,2443.7 L1881.4,2443.7 C1889.4,2443.7 1895.9,2450.2 1895.9,2458.2 C1895.9,2466.2 1889.4,2472.7 1881.4,2472.7 Z" stroke="#333" stroke-width="6" />
<path data-tgroup="T089" d="M2022.8,2055.2 L2012.6,2055.2 C2004.6,2055.2 1998.1,2048.7 1998.1,2040.7 C1998.1,2032.7 2004.6,2026.2 2012.6,2026.2 L2022.8,2026.2 C2030.8,2026.2 2037.3,2032.7 2037.3,2040.7 C2037.3,2048.7 2030.8,2055.2 2022.8,2055.2 Z" stroke="#333" stroke-width="6" />
<path data-tgroup="T090" d="M4200.5,2656.5 L4190.3,2656.5 C4182.3,2656.5 4175.8,2650.0 4175.8,2642.0 C4175.8,2634.0 4182.3,2627.5 4190.3,2627.5 L4200.5,2627.5 C4208.5,2627.5 4215.0,2634.0 4215.0,2642.0 C4215.0,2650.0 4208.5,2656.5 4200.5,2656.5 Z" stroke="#333" stroke-width="6" />
<path data-tgroup="T091" d="M2107.6,4363.7 L2097.4,4363.7 C2089.4,4363.7 2082.9,4357.2 2082.9,4349.2 C2082.9,4341.2 2089.4,4334.7 2097.4,4334.7 L2107.6,4334.7 C2115.6,4334.7 2122.1,4341.2 2122.1,4349.2 C2122.1,4357.2 2115.6,4363.7 2107.6,4363.7 Z" stroke="#333" stroke-width="6" />
</g>
<g id="stations" fill="none">
<rect id="01-02" data-line="1" x="2396.6" y="3160.7" width="32" height="22" rx="11" ry="11" stroke="#e20229" stroke-width="5" />
<rect id="01-03" data-line="1" x="1806.2" y="3960.8" width="32" height="22" rx="11" ry="11" stroke="#e20229" stroke-width="5" />
<rect id="01-04" data-line="1" x="1673.6" y="4094.6" width="32" height="22" rx="11" ry="11" stroke="#e20229" stroke-width="5" />
<rect id="01-05" data-line="1" x="1739.3" y="4029.3" width="32" height="22" rx="11" ry="11" stroke="#e20229" stroke-width="5" />
<rect id="01-06" data-line="1" x="3099.8" y="2546.8" width="32" height="22" rx="11" ry="11" stroke="#e20229" stroke-width="5" />
<rect id="01-07" data-line="1" x="2972.8" y="2019.2" width="32" height="22" rx="11" ry="11" stroke="#e20229" stroke-width="5" />
<rect id="01-08" data-line="1" x="2972.8" y="1855.7" width="32" height="22" rx="11" ry="11" stroke="#e20229" stroke-width="5" />
<rect id="01-09" data-line="1" x="2972.8" y="1691.0" width="32" height="22" rx="11" ry="11" stroke="#e20229" stroke-width="5" />
<rect id="01-10" data-line="1" x="2972.8" y="1527.3" width="32" height="22" rx="11" ry="11" stroke="#e20229" stroke-width="5" />
<rect id="01-11" data-line="1" x="2972.8" y="1363.3" width="32" height="22" rx="11" ry="11" stroke="#e20229" stroke-width="5" />
<rect id="01-12" data-line="1" x="2972.8" y="1200.3" width="32" height="22" rx="11" ry="11" stroke="#e20229" stroke-width="5" />
<rect id="01-13" data-line="1" x="2972.8" y="1036.0" width="32" height="22" rx="11" ry="11" stroke="#e20229" stroke-width="5" />
<rect id="01-15" data-line="1" x="2972.8" y="707.7" width="32" height="22" rx="11" ry="11" stroke="#e20229" stroke-width="5" />
<rect id="01-16" data-line="1" x="2972.8" y="545.0" width="32" height="22" rx="11" ry="11" stroke="#e20229" stroke-width="5" />
<rect id="01-17" data-line="1" x="2972.8" y="381.3" width="32" height="22" rx="11" ry="11" stroke="#e20229" stroke-width="5" />
<rect id="01-18" data-line="1" x="2972.8" y="216.7" width="32" height="22" rx="11" ry="11" stroke="#e20229" stroke-width="5" />
<rect id="02-01" data-line="2" x="5172.4" y="3487.7" width="32" height="22" rx="11" ry="11" stroke="#8bc21f" stroke-width="5" />
<rect id="02-02" data-line="2" x="5172.4" y="3684.0" width="32" height="22" rx="11" ry="11" stroke="#8bc21f" stroke-width="5" />
<rect id="02-03" data-line="2" x="5172.4" y="3881.0" width="32" height="22" rx="11" ry="11" stroke="#8bc21f" stroke-width="5" />
<rect id="02-04" data-line="2" x="5172.4" y="4076.0" width="32" height="22" rx="11" ry="11" stroke="#8bc21f" stroke-width="5" />
<rect id="02-05" data-line="2" x="5172.4" y="4272.0" width="32" height="22" rx="11" ry="11" stroke="#8bc21f" stroke-width="5" />
<rect id="02-06" data-line="2" x="4017.8" y="3100.7" width="32" height="22" rx="11" ry="11" stroke="#8bc21f" stroke-width="5" />
<rect id="02-07" data-line="2" x="4086.7" y="3199.9" width="32" height="22" rx="11" ry="11" stroke="#8bc21f" stroke-width="5" />
<rect id="02-08" data-line="2" x="4401.3" y="3374.5" width="32" height="22" rx="11" ry="11" stroke="#8bc21f" stroke-width="5" />
<rect id="02-09" data-line="2" x="4573.0" y="3374.5" width="32" height="22" rx="11" ry="11" stroke="#8bc21f" stroke-width="5" />
<rect id="02-10" data-line="2" x="4917.0" y="3374.5" width="32" height="22" rx="11" ry="11" stroke="#8bc21f" stroke-width="5" />
<rect id="02-11" data-line="2" x="5088.5" y="3374.5" width="32" height="22" rx="11" ry="11" stroke="#8bc21f" stroke-width="5" />
<rect id="02-12" data-line="2" x="4744.5" y="3374.5" width="32" height="22" rx="11" ry="11" stroke="#8bc21f" stroke-width="5" />
<rect id="02-13" data-line="2" x="692.8" y="2882.7" width="32" height="22" rx="11" ry="11" stroke="#8bc21f" stroke-width="5" />
<rect id="02-14" data-line="2" x="1275.0" y="2703.9" width="32" height="22" rx="11" ry="11" stroke="#8bc21f" stroke-width="5" />
<rect id="02-15" data-line="2" x="1479.0" y="2703.9" width="32" height="22" rx="11" ry="11" stroke="#8bc21f" stroke-width="5" />
<rect id="02-16" data-line="2" x="1682.5" y="2703.9" width="32" height="22" rx="11" ry="11" stroke="#8bc21f" stroke-width="5" />
<rect id="03-02" data-line="3" x="3437.2" y="221.7" width="32" height="22" rx="11" ry="11" stroke="#fdd700" stroke-width="5" />
<rect id="03-03" data-line="3" x="3372.8" y="1380.3" width="32" height="22" rx="11" ry="11" stroke="#fdd700" stroke-width="5" />
<rect id="03-04" data-line="3" x="2141.8" y="3858.1" width="32" height="22" rx="11" ry="11" stroke="#fdd700" stroke-width="5" />
<rect id="03-05" data-line="3" x="3643.2" y="222.3" width="32" height="22" rx="11" ry="11" stroke="#fdd700" stroke-width="5" />
<rect id="03-06" data-line="3" x="3345.3" y="1806.3" width="32" height="22" rx="11" ry="11" stroke="#fdd700" stroke-width="5" />
<rect id="03-07" data-line="3" x="3345.3" y="1664.0" width="32" height="22" rx="11" ry="11" stroke="#fdd700" stroke-width="5" />
<rect id="03-08" data-line="3" x="3799.2" y="510.7" width="32" height="22" rx="11" ry="11" stroke="#fdd700" stroke-width="5" />
<rect id="03-09" data-line="3" x="3799.2" y="374.3" width="32" height="22" rx="11" ry="11" stroke="#fdd700" stroke-width="5" />
<rect id="03-10" data-line="3" x="2149.4" y="3549.4" width="32" height="22" rx="11" ry="11" stroke="#fdd700" stroke-width="5" />
<rect id="03-11" data-line="3" x="3368.3" y="2054.3" width="32" height="22" rx="11" ry="11" stroke="#fdd700" stroke-width="5" />
<rect id="03-12" data-line="3" x="3344.7" y="1524.7" width="32" height="22" rx="11" ry="11" stroke="#fdd700" stroke-width="5" />
<rect id="03-13" data-line="3" x="3798.5" y="922.3" width="32" height="22" rx="11" ry="11" stroke="#fdd700" stroke-width="5" />
<rect id="03-14" data-line="3" x="3798.5" y="785.3" width="32" height="22" rx="11" ry="11" stroke="#fdd700" stroke-width="5" />
<rect id="03-15" data-line="3" x="3798.5" y="648.0" width="32" height="22" rx="11" ry="11" stroke="#fdd700" stroke-width="5" />
<rect id="03-16" data-line="3" x="3666.3" y="1090.2" width="32" height="22" rx="11" ry="11" stroke="#fdd700" stroke-width="5" />
<rect id="04-15" data-line="4" x="3639.0" y="2251.8" width="32" height="22" rx="11" ry="11" stroke="#461d85" stroke-width="5" />
<rect id="04-16" data-line="4" x="2445.3" y="3460.2" width="32" height="22" rx="11" ry="11" stroke="#461d85" stroke-width="5" />
<rect id="04-17" data-line="4" x="2949.0" y="3459.8" width="32" height="22" rx="11" ry="11" stroke="#461d85" stroke-width="5" />
<rect id="04-18" data-line="4" x="3405.5" y="3459.2" width="32" height="22" rx="11" ry="11" stroke="#461d85" stroke-width="5" />
<rect id="04-19" data-line="4" x="3938.3" y="3286.0" width="32" height="22" rx="11" ry="11" stroke="#461d85" stroke-width="5" />
<rect id="04-20" data-line="4" x="3623.5" y="3457.8" width="32" height="22" rx="11" ry="11" stroke="#461d85" stroke-width="5" />
<rect id="04-21" data-line="4" x="3939.3" y="2480.5" width="32" height="22" rx="11" ry="11" stroke="#461d85" stroke-width="5" />
<rect id="05-01" data-line="5" x="1330.2" y="5308.2" width="32" height="22" rx="11" ry="11" stroke="#964b9b" stroke-width="5" />
<rect id="05-02" data-line="5" x="1177.8" y="5308.2" width="32" height="22" rx="11" ry="11" stroke="#964b9b" stroke-width="5" />
<rect id="05-03" data-line="5" x="1026.8" y="5308.2" width="32" height="22" rx="11" ry="11" stroke="#964b9b" stroke-width="5" />
<rect id="05-04" data-line="5" x="1565.3" y="5657.7" width="32" height="22" rx="11" ry="11" stroke="#964b9b" stroke-width="5" />
<rect id="05-05" data-line="5" x="1585.8" y="4493.8" width="32" height="22" rx="11" ry="11" stroke="#964b9b" stroke-width="5" />
<rect id="05-06" data-line="5" x="1585.8" y="4675.7" width="32" height="22" rx="11" ry="11" stroke="#964b9b" stroke-width="5" />
<rect id="05-07" data-line="5" x="1585.8" y="4861.7" width="32" height="22" rx="11" ry="11" stroke="#964b9b" stroke-width="5" />
<rect id="05-08" data-line="5" x="1585.8" y="5044.7" width="32" height="22" rx="11" ry="11" stroke="#964b9b" stroke-width="5" />
<rect id="05-09" data-line="5" x="1585.8" y="5228.0" width="32" height="22" rx="11" ry="11" stroke="#964b9b" stroke-width="5" />
<rect id="05-10" data-line="5" x="1585.8" y="5411.7" width="32" height="22" rx="11" ry="11" stroke="#964b9b" stroke-width="5" />
<rect id="05-11" data-line="5" x="2230.2" y="5768.1" width="32" height="22" rx="11" ry="11" stroke="#964b9b" stroke-width="5" />
<rect id="05-12" data-line="5" x="2230.2" y="5878.0" width="32" height="22" rx="11" ry="11" stroke="#964b9b" stroke-width="5" />
<rect id="05-13" data-line="5" x="1764.5" y="5693.7" width="32" height="22" rx="11" ry="11" stroke="#964b9b" stroke-width="5" />
<rect id="05-14" data-line="5" x="1586.2" y="4383.7" width="32" height="22" rx="11" ry="11" stroke="#964b9b" stroke-width="5" />
<rect id="05-15" data-line="5" x="1562.7" y="5563.0" width="32" height="22" rx="11" ry="11" stroke="#964b9b" stroke-width="5" />
<rect id="05-16" data-line="5" x="1482.5" y="5307.2" width="32" height="22" rx="11" ry="11" stroke="#964b9b" stroke-width="5" />
<rect id="05-17" data-line="5" x="1942.5" y="5693.0" width="32" height="22" rx="11" ry="11" stroke="#964b9b" stroke-width="5" />
<rect id="05-18" data-line="5" x="2097.8" y="5692.3" width="32" height="22" rx="11" ry="11" stroke="#964b9b" stroke-width="5" />
<rect id="06-02" data-line="6" x="3155.5" y="4133.2" width="32" height="22" rx="11" ry="11" stroke="#e20169" stroke-width="5" />
<rect id="06-03" data-line="6" x="3341.2" y="4133.2" width="32" height="22" rx="11" ry="11" stroke="#e20169" stroke-width="5" />
<rect id="06-04" data-line="6" x="3734.0" y="3223.6" width="32" height="22" rx="11" ry="11" stroke="#e20169" stroke-width="5" />
<rect id="06-05" data-line="6" x="3526.5" y="4126.4" width="32" height="22" rx="11" ry="11" stroke="#e20169" stroke-width="5" />
<rect id="06-06" data-line="6" x="4538.1" y="1780.0" width="32" height="22" rx="11" ry="11" stroke="#e20169" stroke-width="5" />
<rect id="06-07" data-line="6" x="4537.9" y="1892.0" width="32" height="22" rx="11" ry="11" stroke="#e20169" stroke-width="5" />
<rect id="06-08" data-line="6" x="4537.8" y="2002.7" width="32" height="22" rx="11" ry="11" stroke="#e20169" stroke-width="5" />
<rect id="06-09" data-line="6" x="4112.2" y="2846.0" width="32" height="22" rx="11" ry="11" stroke="#e20169" stroke-width="5" />
<rect id="06-10" data-line="6" x="4660.3" y="1554.7" width="32" height="22" rx="11" ry="11" stroke="#e20169" stroke-width="5" />
<rect id="06-11" data-line="6" x="4660.3" y="1435.0" width="32" height="22" rx="11" ry="11" stroke="#e20169" stroke-width="5" />
<rect id="06-12" data-line="6" x="3615.8" y="3623.3" width="32" height="22" rx="11" ry="11" stroke="#e20169" stroke-width="5" />
<rect id="06-13" data-line="6" x="3587.6" y="4057.2" width="32" height="22" rx="11" ry="11" stroke="#e20169" stroke-width="5" />
<rect id="06-14" data-line="6" x="4538.1" y="2263.3" width="32" height="22" rx="11" ry="11" stroke="#e20169" stroke-width="5" />
<rect id="06-15" data-line="6" x="4347.9" y="2607.7" width="32" height="22" rx="11" ry="11" stroke="#e20169" stroke-width="5" />
<rect id="06-16" data-line="6" x="4537.9" y="2355.3" width="32" height="22" rx="11" ry="11" stroke="#e20169" stroke-width="5" />
<rect id="06-17" data-line="6" x="4265.8" y="2691.3" width="32" height="22" rx="11" ry="11" stroke="#e20169" stroke-width="5" />
<rect id="06-18" data-line="6" x="4661.2" y="1312.7" width="32" height="22" rx="11" ry="11" stroke="#e20169" stroke-width="5" />
<rect id="06-19" data-line="6" x="3674.3" y="3566.2" width="32" height="22" rx="11" ry="11" stroke="#e20169" stroke-width="5" />
<rect id="06-20" data-line="6" x="4510.4" y="2444.3" width="32" height="22" rx="11" ry="11" stroke="#e20169" stroke-width="5" />
<rect id="07-01" data-line="7" x="2946.2" y="3775.2" width="32" height="22" rx="11" ry="11" stroke="#ec6e00" stroke-width="5" />
<rect id="07-02" data-line="7" x="3427.0" y="3775.4" width="32" height="22" rx="11" ry="11" stroke="#ec6e00" stroke-width="5" />
<rect id="07-03" data-line="7" x="2583.8" y="2616.5" width="32" height="22" rx="11" ry="11" stroke="#ec6e00" stroke-width="5" />
<rect id="07-04" data-line="7" x="4112.4" y="3496.9" width="32" height="22" rx="11" ry="11" stroke="#ec6e00" stroke-width="5" />
<rect id="07-05" data-line="7" x="2559.4" y="1775.8" width="32" height="22" rx="11" ry="11" stroke="#ec6e00" stroke-width="5" />
<rect id="07-06" data-line="7" x="2559.4" y="1659.2" width="32" height="22" rx="11" ry="11" stroke="#ec6e00" stroke-width="5" />
<rect id="07-07" data-line="7" x="2559.4" y="1543.5" width="32" height="22" rx="11" ry="11" stroke="#ec6e00" stroke-width="5" />
<rect id="07-08" data-line="7" x="4023.6" y="3586.6" width="32" height="22" rx="11" ry="11" stroke="#ec6e00" stroke-width="5" />
<rect id="07-09" data-line="7" x="3935.2" y="3674.9" width="32" height="22" rx="11" ry="11" stroke="#ec6e00" stroke-width="5" />
<rect id="07-10" data-line="7" x="2559.9" y="2126.8" width="32" height="22" rx="11" ry="11" stroke="#ec6e00" stroke-width="5" />
<rect id="07-11" data-line="7" x="2559.9" y="2009.5" width="32" height="22" rx="11" ry="11" stroke="#ec6e00" stroke-width="5" />
<rect id="07-12" data-line="7" x="2559.9" y="1893.5" width="32" height="22" rx="11" ry="11" stroke="#ec6e00" stroke-width="5" />
<rect id="07-13" data-line="7" x="2296.8" y="1294.1" width="32" height="22" rx="11" ry="11" stroke="#ec6e00" stroke-width="5" />
<rect id="07-14" data-line="7" x="2100.2" y="1294.1" width="32" height="22" rx="11" ry="11" stroke="#ec6e00" stroke-width="5" />
<rect id="07-15" data-line="7" x="1708.6" y="395.2" width="32" height="22" rx="11" ry="11" stroke="#ec6e00" stroke-width="5" />
<rect id="07-16" data-line="7" x="4399.4" y="3174.4" width="32" height="22" rx="11" ry="11" stroke="#ec6e00" stroke-width="5" />
<rect id="07-17" data-line="7" x="1708.4" y="1129.8" width="32" height="22" rx="11" ry="11" stroke="#ec6e00" stroke-width="5" />
<rect id="07-18" data-line="7" x="1708.2" y="764.2" width="32" height="22" rx="11" ry="11" stroke="#ec6e00" stroke-width="5" />
<rect id="07-19" data-line="7" x="1708.1" y="579.8" width="32" height="22" rx="11" ry="11" stroke="#ec6e00" stroke-width="5" />
<rect id="07-20" data-line="7" x="1708.1" y="212.2" width="32" height="22" rx="11" ry="11" stroke="#ec6e00" stroke-width="5" />
<rect id="07-21" data-line="7" x="2477.2" y="1391.6" width="32" height="22" rx="11" ry="11" stroke="#ec6e00" stroke-width="5" />
<rect id="08-01" data-line="8" x="4107.0" y="1787.2" width="32" height="22" rx="11" ry="11" stroke="#0095da" stroke-width="5" />
<rect id="08-02" data-line="8" x="3818.3" y="1966.0" width="32" height="22" rx="11" ry="11" stroke="#0095da" stroke-width="5" />
<rect id="08-03" data-line="8" x="3506.6" y="1965.9" width="32" height="22" rx="11" ry="11" stroke="#0095da" stroke-width="5" />
<rect id="08-04" data-line="8" x="4026.2" y="1869.7" width="32" height="22" rx="11" ry="11" stroke="#0095da" stroke-width="5" />
<rect id="08-05" data-line="8" x="3154.8" y="3998.3" width="32" height="22" rx="11" ry="11" stroke="#0095da" stroke-width="5" />
<rect id="08-06" data-line="8" x="3224.5" y="2115.1" width="32" height="22" rx="11" ry="11" stroke="#0095da" stroke-width="5" />
<rect id="08-07" data-line="8" x="4153.2" y="1719.5" width="32" height="22" rx="11" ry="11" stroke="#0095da" stroke-width="5" />
<rect id="08-08" data-line="8" x="3312.8" y="3615.8" width="32" height="22" rx="11" ry="11" stroke="#0095da" stroke-width="5" />
<rect id="08-09" data-line="8" x="2976.8" y="4200.7" width="32" height="22" rx="11" ry="11" stroke="#0095da" stroke-width="5" />
<rect id="08-10" data-line="8" x="2942.8" y="4290.2" width="32" height="22" rx="11" ry="11" stroke="#0095da" stroke-width="5" />
<rect id="08-11" data-line="8" x="2942.8" y="4534.8" width="32" height="22" rx="11" ry="11" stroke="#0095da" stroke-width="5" />
<rect id="08-12" data-line="8" x="3288.1" y="2039.1" width="32" height="22" rx="11" ry="11" stroke="#0095da" stroke-width="5" />
<rect id="08-13" data-line="8" x="4152.8" y="1413.3" width="32" height="22" rx="11" ry="11" stroke="#0095da" stroke-width="5" />
<rect id="08-14" data-line="8" x="4153.9" y="1618.7" width="32" height="22" rx="11" ry="11" stroke="#0095da" stroke-width="5" />
<rect id="08-15" data-line="8" x="4154.0" y="1517.8" width="32" height="22" rx="11" ry="11" stroke="#0095da" stroke-width="5" />
<rect id="08-16" data-line="8" x="2943.4" y="4672.2" width="32" height="22" rx="11" ry="11" stroke="#0095da" stroke-width="5" />
<rect id="08-17" data-line="8" x="2944.0" y="4809.0" width="32" height="22" rx="11" ry="11" stroke="#0095da" stroke-width="5" />
<rect id="09-01" data-line="9" x="4751.2" y="2601.9" width="32" height="22" rx="11" ry="11" stroke="#87c9ec" stroke-width="5" />
<rect id="09-02" data-line="9" x="746.3" y="3838.7" width="32" height="22" rx="11" ry="11" stroke="#87c9ec" stroke-width="5" />
<rect id="09-03" data-line="9" x="1154.2" y="3432.5" width="32" height="22" rx="11" ry="11" stroke="#87c9ec" stroke-width="5" />
<rect id="09-04" data-line="9" x="639.7" y="4022.3" width="32" height="22" rx="11" ry="11" stroke="#87c9ec" stroke-width="5" />
<rect id="09-05" data-line="9" x="845.5" y="3742.2" width="32" height="22" rx="11" ry="11" stroke="#87c9ec" stroke-width="5" />
<rect id="09-06" data-line="9" x="2932.2" y="3242.8" width="32" height="22" rx="11" ry="11" stroke="#87c9ec" stroke-width="5" />
<rect id="09-07" data-line="9" x="637.0" y="4216.2" width="32" height="22" rx="11" ry="11" stroke="#87c9ec" stroke-width="5" />
<rect id="09-08" data-line="9" x="4667.4" y="2687.5" width="32" height="22" rx="11" ry="11" stroke="#87c9ec" stroke-width="5" />
<rect id="09-09" data-line="9" x="1597.7" y="3451.8" width="32" height="22" rx="11" ry="11" stroke="#87c9ec" stroke-width="5" />
<rect id="09-10" data-line="9" x="944.0" y="3646.0" width="32" height="22" rx="11" ry="11" stroke="#87c9ec" stroke-width="5" />
<rect id="09-11" data-line="9" x="1442.5" y="3427.8" width="32" height="22" rx="11" ry="11" stroke="#87c9ec" stroke-width="5" />
<rect id="09-12" data-line="9" x="1285.3" y="3451.8" width="32" height="22" rx="11" ry="11" stroke="#87c9ec" stroke-width="5" />
<rect id="09-13" data-line="9" x="5036.5" y="2509.2" width="32" height="22" rx="11" ry="11" stroke="#87c9ec" stroke-width="5" />
<rect id="09-14" data-line="9" x="4899.5" y="2509.2" width="32" height="22" rx="11" ry="11" stroke="#87c9ec" stroke-width="5" />
<rect id="09-15" data-line="9" x="3498.3" y="3117.3" width="32" height="22" rx="11" ry="11" stroke="#87c9ec" stroke-width="5" />
<rect id="09-16" data-line="9" x="5175.3" y="2509.6" width="32" height="22" rx="11" ry="11" stroke="#87c9ec" stroke-width="5" />
<rect id="09-17" data-line="9" x="4582.3" y="2773.1" width="32" height="22" rx="11" ry="11" stroke="#87c9ec" stroke-width="5" />
<rect id="09-18" data-line="9" x="524.9" y="4463.4" width="32" height="22" rx="11" ry="11" stroke="#87c9ec" stroke-width="5" />
<rect id="09-19" data-line="9" x="607.4" y="4381.3" width="32" height="22" rx="11" ry="11" stroke="#87c9ec" stroke-width="5" />
<rect id="09-20" data-line="9" x="360.6" y="4627.8" width="32" height="22" rx="11" ry="11" stroke="#87c9ec" stroke-width="5" />
<rect id="09-21" data-line="9" x="3734.0" y="3028.8" width="32" height="22" rx="11" ry="11" stroke="#87c9ec" stroke-width="5" />
<rect id="09-22" data-line="9" x="442.9" y="4546.0" width="32" height="22" rx="11" ry="11" stroke="#87c9ec" stroke-width="5" />
<rect id="09-23" data-line="9" x="4373.4" y="2981.7" width="32" height="22" rx="11" ry="11" stroke="#87c9ec" stroke-width="5" />
<rect id="10-01" data-line="10" x="1760.5" y="2849.7" width="32" height="22" rx="11" ry="11" stroke="#c6afd3" stroke-width="5" />
<rect id="10-02" data-line="10" x="3458.5" y="2377.8" width="32" height="22" rx="11" ry="11" stroke="#c6afd3" stroke-width="5" />
<rect id="10-03" data-line="10" x="1499.1" y="2968.6" width="32" height="22" rx="11" ry="11" stroke="#c6afd3" stroke-width="5" />
<rect id="10-04" data-line="10" x="1361.1" y="3105.3" width="32" height="22" rx="11" ry="11" stroke="#c6afd3" stroke-width="5" />
<rect id="10-05" data-line="10" x="3717.1" y="1902.8" width="32" height="22" rx="11" ry="11" stroke="#c6afd3" stroke-width="5" />
<rect id="10-06" data-line="10" x="1292.8" y="2832.1" width="32" height="22" rx="11" ry="11" stroke="#c6afd3" stroke-width="5" />
<rect id="10-07" data-line="10" x="4807.5" y="1181.6" width="32" height="22" rx="11" ry="11" stroke="#c6afd3" stroke-width="5" />
<rect id="10-08" data-line="10" x="1165.2" y="3212.9" width="32" height="22" rx="11" ry="11" stroke="#c6afd3" stroke-width="5" />
<rect id="10-09" data-line="10" x="3889.1" y="1331.0" width="32" height="22" rx="11" ry="11" stroke="#c6afd3" stroke-width="5" />
<rect id="10-10" data-line="10" x="3889.1" y="1435.0" width="32" height="22" rx="11" ry="11" stroke="#c6afd3" stroke-width="5" />
<rect id="10-11" data-line="10" x="3889.1" y="1536.0" width="32" height="22" rx="11" ry="11" stroke="#c6afd3" stroke-width="5" />
<rect id="10-12" data-line="10" x="3889.1" y="1637.0" width="32" height="22" rx="11" ry="11" stroke="#c6afd3" stroke-width="5" />
<rect id="10-13" data-line="10" x="3889.1" y="1738.1" width="32" height="22" rx="11" ry="11" stroke="#c6afd3" stroke-width="5" />
<rect id="10-14" data-line="10" x="1504.8" y="2826.1" width="32" height="22" rx="11" ry="11" stroke="#c6afd3" stroke-width="5" />
<rect id="10-15" data-line="10" x="4512.5" y="1180.6" width="32" height="22" rx="11" ry="11" stroke="#c6afd3" stroke-width="5" />
<rect id="10-16" data-line="10" x="4376.0" y="1180.6" width="32" height="22" rx="11" ry="11" stroke="#c6afd3" stroke-width="5" />
<rect id="10-17" data-line="10" x="4237.8" y="1201.6" width="32" height="22" rx="11" ry="11" stroke="#c6afd3" stroke-width="5" />
<rect id="10-18" data-line="10" x="4016.8" y="1180.6" width="32" height="22" rx="11" ry="11" stroke="#c6afd3" stroke-width="5" />
<rect id="10-19" data-line="10" x="1654.5" y="2828.5" width="32" height="22" rx="11" ry="11" stroke="#c6afd3" stroke-width="5" />
<rect id="10-20" data-line="10" x="1948.2" y="2911.0" width="32" height="22" rx="11" ry="11" stroke="#c6afd3" stroke-width="5" />
<rect id="10-21" data-line="10" x="2403.0" y="3040.9" width="32" height="22" rx="11" ry="11" stroke="#c6afd3" stroke-width="5" />
<rect id="10-22" data-line="10" x="2031.1" y="2999.8" width="32" height="22" rx="11" ry="11" stroke="#c6afd3" stroke-width="5" />
<rect id="10-23" data-line="10" x="3555.4" y="2101.9" width="32" height="22" rx="11" ry="11" stroke="#c6afd3" stroke-width="5" />
<rect id="11-01" data-line="11" x="2325.5" y="3625.0" width="32" height="22" rx="11" ry="11" stroke="#861a2a" stroke-width="5" />
<rect id="11-02" data-line="11" x="3473.8" y="4276.2" width="32" height="22" rx="11" ry="11" stroke="#861a2a" stroke-width="5" />
<rect id="11-03" data-line="11" x="3662.5" y="4276.2" width="32" height="22" rx="11" ry="11" stroke="#861a2a" stroke-width="5" />
<rect id="11-04" data-line="11" x="3286.5" y="4274.0" width="32" height="22" rx="11" ry="11" stroke="#861a2a" stroke-width="5" />
<rect id="11-05" data-line="11" x="1075.7" y="747.3" width="32" height="22" rx="11" ry="11" stroke="#861a2a" stroke-width="5" />
<rect id="11-06" data-line="11" x="4494.6" y="4425.3" width="32" height="22" rx="11" ry="11" stroke="#861a2a" stroke-width="5" />
<rect id="11-07" data-line="11" x="4585.9" y="4535.1" width="32" height="22" rx="11" ry="11" stroke="#861a2a" stroke-width="5" />
<rect id="11-08" data-line="11" x="4402.6" y="4365.1" width="32" height="22" rx="11" ry="11" stroke="#861a2a" stroke-width="5" />
<rect id="11-09" data-line="11" x="2501.3" y="3871.9" width="32" height="22" rx="11" ry="11" stroke="#861a2a" stroke-width="5" />
<rect id="11-10" data-line="11" x="2203.2" y="2128.6" width="32" height="22" rx="11" ry="11" stroke="#861a2a" stroke-width="5" />
<rect id="11-11" data-line="11" x="703.9" y="1349.1" width="32" height="22" rx="11" ry="11" stroke="#861a2a" stroke-width="5" />
<rect id="11-12" data-line="11" x="591.5" y="1391.1" width="32" height="22" rx="11" ry="11" stroke="#861a2a" stroke-width="5" />
<rect id="11-13" data-line="11" x="467.5" y="1419.8" width="32" height="22" rx="11" ry="11" stroke="#861a2a" stroke-width="5" />
<rect id="11-14" data-line="11" x="883.7" y="1170.9" width="32" height="22" rx="11" ry="11" stroke="#861a2a" stroke-width="5" />
<rect id="11-15" data-line="11" x="1076.5" y="487.3" width="32" height="22" rx="11" ry="11" stroke="#861a2a" stroke-width="5" />
<rect id="11-16" data-line="11" x="972.5" y="1083.0" width="32" height="22" rx="11" ry="11" stroke="#861a2a" stroke-width="5" />
<rect id="11-17" data-line="11" x="1076.7" y="220.7" width="32" height="22" rx="11" ry="11" stroke="#861a2a" stroke-width="5" />
<rect id="11-18" data-line="11" x="1180.4" y="1071.8" width="32" height="22" rx="11" ry="11" stroke="#861a2a" stroke-width="5" />
<rect id="11-19" data-line="11" x="2641.6" y="4010.6" width="32" height="22" rx="11" ry="11" stroke="#861a2a" stroke-width="5" />
<rect id="11-20" data-line="11" x="792.7" y="1262.2" width="32" height="22" rx="11" ry="11" stroke="#861a2a" stroke-width="5" />
<rect id="11-21" data-line="11" x="1279.3" y="1170.0" width="32" height="22" rx="11" ry="11" stroke="#861a2a" stroke-width="5" />
<rect id="11-22" data-line="11" x="1672.2" y="1562.6" width="32" height="22" rx="11" ry="11" stroke="#861a2a" stroke-width="5" />
<rect id="11-23" data-line="11" x="1771.9" y="1662.0" width="32" height="22" rx="11" ry="11" stroke="#861a2a" stroke-width="5" />
<rect id="11-24" data-line="11" x="1375.8" y="1265.9" width="32" height="22" rx="11" ry="11" stroke="#861a2a" stroke-width="5" />
<rect id="11-25" data-line="11" x="1573.9" y="1463.6" width="32" height="22" rx="11" ry="11" stroke="#861a2a" stroke-width="5" />
<rect id="11-26" data-line="11" x="1475.0" y="1364.8" width="32" height="22" rx="11" ry="11" stroke="#861a2a" stroke-width="5" />
<rect id="11-27" data-line="11" x="1853.6" y="1775.2" width="32" height="22" rx="11" ry="11" stroke="#861a2a" stroke-width="5" />
<rect id="11-30" data-line="11" x="328.5" y="1408.0" width="32" height="22" rx="11" ry="11" stroke="#861a2a" stroke-width="5" />
<rect id="12-02" data-line="12" x="4698.2" y="2139.2" width="32" height="22" rx="11" ry="11" stroke="#00785f" stroke-width="5" />
<rect id="12-03" data-line="12" x="4853.5" y="2358.0" width="32" height="22" rx="11" ry="11" stroke="#00785f" stroke-width="5" />
<rect id="12-04" data-line="12" x="4854.2" y="2220.8" width="32" height="22" rx="11" ry="11" stroke="#00785f" stroke-width="5" />
<rect id="12-05" data-line="12" x="4133.2" y="2158.9" width="32" height="22" rx="11" ry="11" stroke="#00785f" stroke-width="5" />
<rect id="12-06" data-line="12" x="4220.5" y="2137.5" width="32" height="22" rx="11" ry="11" stroke="#00785f" stroke-width="5" />
<rect id="12-07" data-line="12" x="4300.5" y="2158.5" width="32" height="22" rx="11" ry="11" stroke="#00785f" stroke-width="5" />
<rect id="12-08" data-line="12" x="4435.0" y="2137.4" width="32" height="22" rx="11" ry="11" stroke="#00785f" stroke-width="5" />
<rect id="12-09" data-line="12" x="1576.7" y="3731.0" width="32" height="22" rx="11" ry="11" stroke="#00785f" stroke-width="5" />
<rect id="12-10" data-line="12" x="1085.5" y="3899.7" width="32" height="22" rx="11" ry="11" stroke="#00785f" stroke-width="5" />
<rect id="12-11" data-line="12" x="3716.4" y="2357.4" width="32" height="22" rx="11" ry="11" stroke="#00785f" stroke-width="5" />
<rect id="12-12" data-line="12" x="4046.5" y="2135.9" width="32" height="22" rx="11" ry="11" stroke="#00785f" stroke-width="5" />
<rect id="12-13" data-line="12" x="1214.0" y="3898.9" width="32" height="22" rx="11" ry="11" stroke="#00785f" stroke-width="5" />
<rect id="12-14" data-line="12" x="1510.0" y="3796.3" width="32" height="22" rx="11" ry="11" stroke="#00785f" stroke-width="5" />
<rect id="12-15" data-line="12" x="3623.2" y="2451.8" width="32" height="22" rx="11" ry="11" stroke="#00785f" stroke-width="5" />
<rect id="12-16" data-line="12" x="1654.2" y="3686.3" width="32" height="22" rx="11" ry="11" stroke="#00785f" stroke-width="5" />
<rect id="12-17" data-line="12" x="1344.5" y="3898.2" width="32" height="22" rx="11" ry="11" stroke="#00785f" stroke-width="5" />
<rect id="13-01" data-line="13" x="3764.5" y="3929.8" width="32" height="22" rx="11" ry="11" stroke="#e899c0" stroke-width="5" />
<rect id="13-02" data-line="13" x="3945.2" y="3930.2" width="32" height="22" rx="11" ry="11" stroke="#e899c0" stroke-width="5" />
<rect id="13-03" data-line="13" x="1552.2" y="2282.7" width="32" height="22" rx="11" ry="11" stroke="#e899c0" stroke-width="5" />
<rect id="13-04" data-line="13" x="3000.8" y="2844.3" width="32" height="22" rx="11" ry="11" stroke="#e899c0" stroke-width="5" />
<rect id="13-05" data-line="13" x="3001.0" y="2576.3" width="32" height="22" rx="11" ry="11" stroke="#e899c0" stroke-width="5" />
<rect id="13-06" data-line="13" x="1648.9" y="2380.6" width="32" height="22" rx="11" ry="11" stroke="#e899c0" stroke-width="5" />
<rect id="13-07" data-line="13" x="4860.2" y="4006.8" width="32" height="22" rx="11" ry="11" stroke="#e899c0" stroke-width="5" />
<rect id="13-08" data-line="13" x="4729.2" y="4006.8" width="32" height="22" rx="11" ry="11" stroke="#e899c0" stroke-width="5" />
<rect id="13-09" data-line="13" x="4599.8" y="4006.8" width="32" height="22" rx="11" ry="11" stroke="#e899c0" stroke-width="5" />
<rect id="13-10" data-line="13" x="3072.4" y="3517.7" width="32" height="22" rx="11" ry="11" stroke="#e899c0" stroke-width="5" />
<rect id="13-11" data-line="13" x="1373.5" y="2208.5" width="32" height="22" rx="11" ry="11" stroke="#e899c0" stroke-width="5" />
<rect id="13-12" data-line="13" x="3854.8" y="3907.7" width="32" height="22" rx="11" ry="11" stroke="#e899c0" stroke-width="5" />
<rect id="13-13" data-line="13" x="3071.6" y="3627.6" width="32" height="22" rx="11" ry="11" stroke="#e899c0" stroke-width="5" />
<rect id="13-14" data-line="13" x="2744.8" y="2434.3" width="32" height="22" rx="11" ry="11" stroke="#e899c0" stroke-width="5" />
<rect id="13-15" data-line="13" x="3674.8" y="3906.7" width="32" height="22" rx="11" ry="11" stroke="#e899c0" stroke-width="5" />
<rect id="13-16" data-line="13" x="1118.2" y="2207.2" width="32" height="22" rx="11" ry="11" stroke="#e899c0" stroke-width="5" />
<rect id="13-17" data-line="13" x="879.2" y="2207.2" width="32" height="22" rx="11" ry="11" stroke="#e899c0" stroke-width="5" />
<rect id="14-01" data-line="14" x="2426.4" y="2587.3" width="32" height="22" rx="11" ry="11" stroke="#626020" stroke-width="5" />
<rect id="14-02" data-line="14" x="1528.4" y="1971.2" width="32" height="22" rx="11" ry="11" stroke="#626020" stroke-width="5" />
<rect id="14-03" data-line="14" x="4708.0" y="2886.1" width="32" height="22" rx="11" ry="11" stroke="#626020" stroke-width="5" />
<rect id="14-04" data-line="14" x="4854.0" y="2864.9" width="32" height="22" rx="11" ry="11" stroke="#626020" stroke-width="5" />
<rect id="14-05" data-line="14" x="1786.2" y="2017.1" width="32" height="22" rx="11" ry="11" stroke="#626020" stroke-width="5" />
<rect id="14-06" data-line="14" x="1456.3" y="1899.9" width="32" height="22" rx="11" ry="11" stroke="#626020" stroke-width="5" />
<rect id="14-07" data-line="14" x="4564.5" y="2886.9" width="32" height="22" rx="11" ry="11" stroke="#626020" stroke-width="5" />
<rect id="14-08" data-line="14" x="1317.2" y="1831.2" width="32" height="22" rx="11" ry="11" stroke="#626020" stroke-width="5" />
<rect id="14-09" data-line="14" x="5143.8" y="2886.0" width="32" height="22" rx="11" ry="11" stroke="#626020" stroke-width="5" />
<rect id="14-10" data-line="14" x="4998.5" y="2886.9" width="32" height="22" rx="11" ry="11" stroke="#626020" stroke-width="5" />
<rect id="14-11" data-line="14" x="4268.1" y="2524.2" width="32" height="22" rx="11" ry="11" stroke="#626020" stroke-width="5" />
<rect id="14-12" data-line="14" x="1132.4" y="1829.9" width="32" height="22" rx="11" ry="11" stroke="#626020" stroke-width="5" />
<rect id="14-13" data-line="14" x="945.2" y="1829.9" width="32" height="22" rx="11" ry="11" stroke="#626020" stroke-width="5" />
<rect id="14-14" data-line="14" x="757.5" y="1829.9" width="32" height="22" rx="11" ry="11" stroke="#626020" stroke-width="5" />
<rect id="14-15" data-line="14" x="2271.7" y="2074.1" width="32" height="22" rx="11" ry="11" stroke="#626020" stroke-width="5" />
<rect id="14-16" data-line="14" x="4098.7" y="2696.2" width="32" height="22" rx="11" ry="11" stroke="#626020" stroke-width="5" />
<rect id="15-02" data-line="15" x="1875.3" y="2790.0" width="32" height="22" rx="11" ry="11" stroke="#cab08d" stroke-width="5" />
<rect id="15-03" data-line="15" x="2097.9" y="4144.5" width="32" height="22" rx="11" ry="11" stroke="#cab08d" stroke-width="5" />
<rect id="15-04" data-line="15" x="2097.9" y="4263.0" width="32" height="22" rx="11" ry="11" stroke="#cab08d" stroke-width="5" />
<rect id="15-05" data-line="15" x="2097.9" y="4564.5" width="32" height="22" rx="11" ry="11" stroke="#cab08d" stroke-width="5" />
<rect id="15-06" data-line="15" x="2097.9" y="4706.0" width="32" height="22" rx="11" ry="11" stroke="#cab08d" stroke-width="5" />
<rect id="15-07" data-line="15" x="2097.9" y="4845.5" width="32" height="22" rx="11" ry="11" stroke="#cab08d" stroke-width="5" />
<rect id="15-08" data-line="15" x="2097.9" y="5405.8" width="32" height="22" rx="11" ry="11" stroke="#cab08d" stroke-width="5" />
<rect id="15-09" data-line="15" x="2098.4" y="4984.8" width="32" height="22" rx="11" ry="11" stroke="#cab08d" stroke-width="5" />
<rect id="15-10" data-line="15" x="2098.4" y="5125.5" width="32" height="22" rx="11" ry="11" stroke="#cab08d" stroke-width="5" />
<rect id="15-11" data-line="15" x="2013.0" y="1684.0" width="32" height="22" rx="11" ry="11" stroke="#cab08d" stroke-width="5" />
<rect id="15-12" data-line="15" x="2013.0" y="1787.0" width="32" height="22" rx="11" ry="11" stroke="#cab08d" stroke-width="5" />
<rect id="15-13" data-line="15" x="1935.2" y="1012.5" width="32" height="22" rx="11" ry="11" stroke="#cab08d" stroke-width="5" />
<rect id="15-14" data-line="15" x="2012.6" y="1379.0" width="32" height="22" rx="11" ry="11" stroke="#cab08d" stroke-width="5" />
<rect id="15-15" data-line="15" x="2012.6" y="1480.0" width="32" height="22" rx="11" ry="11" stroke="#cab08d" stroke-width="5" />
<rect id="15-16" data-line="15" x="2012.6" y="1582.9" width="32" height="22" rx="11" ry="11" stroke="#cab08d" stroke-width="5" />
<rect id="15-17" data-line="15" x="2099.1" y="5266.0" width="32" height="22" rx="11" ry="11" stroke="#cab08d" stroke-width="5" />
<rect id="15-18" data-line="15" x="2083.9" y="4026.7" width="32" height="22" rx="11" ry="11" stroke="#cab08d" stroke-width="5" />
<rect id="15-19" data-line="15" x="1765.2" y="3171.7" width="32" height="22" rx="11" ry="11" stroke="#cab08d" stroke-width="5" />
<rect id="15-20" data-line="15" x="1765.2" y="3293.3" width="32" height="22" rx="11" ry="11" stroke="#cab08d" stroke-width="5" />
<rect id="15-21" data-line="15" x="1851.2" y="2529.0" width="32" height="22" rx="11" ry="11" stroke="#cab08d" stroke-width="5" />
<rect id="15-22" data-line="15" x="1894.3" y="2192.7" width="32" height="22" rx="11" ry="11" stroke="#cab08d" stroke-width="5" />
<rect id="16-02" data-line="16" x="4344.9" y="5043.0" width="32" height="22" rx="11" ry="11" stroke="#98d1c0" stroke-width="5" />
<rect id="16-03" data-line="16" x="4345.0" y="4781.5" width="32" height="22" rx="11" ry="11" stroke="#98d1c0" stroke-width="5" />
<rect id="16-04" data-line="16" x="4345.9" y="4519.2" width="32" height="22" rx="11" ry="11" stroke="#98d1c0" stroke-width="5" />
<rect id="16-05" data-line="16" x="5167.3" y="5771.9" width="32" height="22" rx="11" ry="11" stroke="#98d1c0" stroke-width="5" />
<rect id="16-06" data-line="16" x="4884.2" y="5488.1" width="32" height="22" rx="11" ry="11" stroke="#98d1c0" stroke-width="5" />
<rect id="16-07" data-line="16" x="4465.2" y="5446.9" width="32" height="22" rx="11" ry="11" stroke="#98d1c0" stroke-width="5" />
<rect id="16-08" data-line="16" x="5071.8" y="5677.7" width="32" height="22" rx="11" ry="11" stroke="#98d1c0" stroke-width="5" />
<rect id="16-09" data-line="16" x="4636.5" y="5422.5" width="32" height="22" rx="11" ry="11" stroke="#98d1c0" stroke-width="5" />
<rect id="16-10" data-line="16" x="4800.5" y="5422.5" width="32" height="22" rx="11" ry="11" stroke="#98d1c0" stroke-width="5" />
<rect id="16-11" data-line="16" x="4977.2" y="5582.8" width="32" height="22" rx="11" ry="11" stroke="#98d1c0" stroke-width="5" />
<rect id="17-02" data-line="17" x="544.0" y="3057.0" width="32" height="22" rx="11" ry="11" stroke="#bc7970" stroke-width="5" />
<rect id="17-03" data-line="17" x="544.0" y="3417.7" width="32" height="22" rx="11" ry="11" stroke="#bc7970" stroke-width="5" />
<rect id="17-04" data-line="17" x="544.0" y="3537.7" width="32" height="22" rx="11" ry="11" stroke="#bc7970" stroke-width="5" />
<rect id="17-05" data-line="17" x="544.0" y="3659.3" width="32" height="22" rx="11" ry="11" stroke="#bc7970" stroke-width="5" />
<rect id="17-06" data-line="17" x="544.9" y="3176.7" width="32" height="22" rx="11" ry="11" stroke="#bc7970" stroke-width="5" />
<rect id="17-07" data-line="17" x="544.9" y="3297.3" width="32" height="22" rx="11" ry="11" stroke="#bc7970" stroke-width="5" />
<rect id="17-08" data-line="17" x="429.1" y="3866.5" width="32" height="22" rx="11" ry="11" stroke="#bc7970" stroke-width="5" />
<rect id="17-09" data-line="17" x="514.2" y="3773.1" width="32" height="22" rx="11" ry="11" stroke="#bc7970" stroke-width="5" />
<rect id="17-10" data-line="17" x="532.8" y="2979.7" width="32" height="22" rx="11" ry="11" stroke="#bc7970" stroke-width="5" />
<rect id="17-11" data-line="17" x="657.8" y="2846.2" width="32" height="22" rx="11" ry="11" stroke="#bc7970" stroke-width="5" />
<rect id="17-12" data-line="17" x="590.1" y="2914.0" width="32" height="22" rx="11" ry="11" stroke="#bc7970" stroke-width="5" />
<rect id="18-02" data-line="18" x="4038.8" y="5283.0" width="32" height="22" rx="11" ry="11" stroke="#c4984f" stroke-width="5" />
<rect id="18-03" data-line="18" x="4038.8" y="5447.0" width="32" height="22" rx="11" ry="11" stroke="#c4984f" stroke-width="5" />
<rect id="18-04" data-line="18" x="4121.3" y="2343.9" width="32" height="22" rx="11" ry="11" stroke="#c4984f" stroke-width="5" />
<rect id="18-05" data-line="18" x="4044.7" y="2267.6" width="32" height="22" rx="11" ry="11" stroke="#c4984f" stroke-width="5" />
<rect id="18-06" data-line="18" x="3515.6" y="1421.7" width="32" height="22" rx="11" ry="11" stroke="#c4984f" stroke-width="5" />
<rect id="18-07" data-line="18" x="4257.8" y="3155.7" width="32" height="22" rx="11" ry="11" stroke="#c4984f" stroke-width="5" />
<rect id="18-08" data-line="18" x="4037.9" y="4617.0" width="32" height="22" rx="11" ry="11" stroke="#c4984f" stroke-width="5" />
<rect id="18-09" data-line="18" x="4037.9" y="4783.0" width="32" height="22" rx="11" ry="11" stroke="#c4984f" stroke-width="5" />
<rect id="18-10" data-line="18" x="4037.9" y="5116.3" width="32" height="22" rx="11" ry="11" stroke="#c4984f" stroke-width="5" />
<rect id="18-11" data-line="18" x="4160.3" y="3797.7" width="32" height="22" rx="11" ry="11" stroke="#c4984f" stroke-width="5" />
<rect id="18-12" data-line="18" x="4160.3" y="3909.3" width="32" height="22" rx="11" ry="11" stroke="#c4984f" stroke-width="5" />
<rect id="18-13" data-line="18" x="3667.1" y="1663.4" width="32" height="22" rx="11" ry="11" stroke="#c4984f" stroke-width="5" />
<rect id="18-14" data-line="18" x="3556.2" y="1552.0" width="32" height="22" rx="11" ry="11" stroke="#c4984f" stroke-width="5" />
<rect id="18-15" data-line="18" x="3878.6" y="1874.3" width="32" height="22" rx="11" ry="11" stroke="#c4984f" stroke-width="5" />
<rect id="18-16" data-line="18" x="4036.9" y="4450.0" width="32" height="22" rx="11" ry="11" stroke="#c4984f" stroke-width="5" />
<rect id="AL-01" data-line="AL" x="1048.0" y="2817.0" width="32" height="22" rx="11" ry="11" stroke="#0d7370" stroke-width="5" />
<rect id="AL-04" data-line="AL" x="2833.6" y="4356.2" width="32" height="22" rx="11" ry="11" stroke="#0d7370" stroke-width="5" />
<rect id="AL-05" data-line="AL" x="4543.1" y="4316.9" width="32" height="22" rx="11" ry="11" stroke="#0d7370" stroke-width="5" />
<rect id="AL-06" data-line="AL" x="4750.4" y="4416.6" width="32" height="22" rx="11" ry="11" stroke="#0d7370" stroke-width="5" />
<rect id="AL-07" data-line="AL" x="5104.0" y="4861.0" width="32" height="22" rx="11" ry="11" stroke="#0d7370" stroke-width="5" />
<rect id="ML-01" data-line="ML" x="4294.2" y="3422.7" width="32" height="22" rx="11" ry="11" stroke="#ef7002" stroke-width="5" />
<rect id="ML-02" data-line="ML" x="5139.2" y="4909.6" width="32" height="22" rx="11" ry="11" stroke="#ef7002" stroke-width="5" />
<rect id="Pujiang-02" data-line="Pujiang" x="3020.2" y="5454.5" width="32" height="22" rx="11" ry="11" stroke="#b6b6b6" stroke-width="5" />
<rect id="Pujiang-03" data-line="Pujiang" x="3141.5" y="5107.7" width="32" height="22" rx="11" ry="11" stroke="#b6b6b6" stroke-width="5" />
<rect id="Pujiang-04" data-line="Pujiang" x="3141.5" y="5242.0" width="32" height="22" rx="11" ry="11" stroke="#b6b6b6" stroke-width="5" />
<rect id="Pujiang-05" data-line="Pujiang" x="3141.5" y="5369.7" width="32" height="22" rx="11" ry="11" stroke="#b6b6b6" stroke-width="5" />
<rect id="Pujiang-06" data-line="Pujiang" x="3118.5" y="4985.3" width="32" height="22" rx="11" ry="11" stroke="#b6b6b6" stroke-width="5" />
<rect id="11-40" data-line="11" x="3856.0" y="4283.0" width="32" height="22" rx="11" ry="11" stroke="#861a2a" stroke-width="5" />
<rect id="17-14" data-line="17" x="344.0" y="3961.0" width="32" height="22" rx="11" ry="11" stroke="#bc7970" stroke-width="5" />
<rect id="18-26" data-line="18" x="4038.0" y="4950.0" width="32" height="22" rx="11" ry="11" stroke="#c4984f" stroke-width="5" />
<rect id="18-27" data-line="18" x="3371.0" y="1172.0" width="32" height="22" rx="11" ry="11" stroke="#c4984f" stroke-width="5" />
<rect id="18-28" data-line="18" x="3239.0" y="1073.0" width="32" height="22" rx="11" ry="11" stroke="#c4984f" stroke-width="5" />
<rect id="18-29" data-line="18" x="3107.0" y="974.0" width="32" height="22" rx="11" ry="11" stroke="#c4984f" stroke-width="5" />
<rect id="18-31" data-line="18" x="2841.0" y="774.0" width="32" height="22" rx="11" ry="11" stroke="#c4984f" stroke-width="5" />
<circle id="01-14" data-line="1" data-tgroup="M092" cx="2988.8" cy="883.7" r="22" stroke="#e20229" stroke-width="6" />
<circle id="18-30" data-line="18" data-tgroup="M092" cx="2989.0" cy="884.0" r="22" stroke="#c4984f" stroke-width="6" />
</g>
<g id="ticks" fill="none" stroke-linecap="butt">
<g data-line="1" stroke="#e20229" stroke-width="16">
<path d="M1681.4,4097.4 L1697.8,4113.8" />
<path d="M1747.5,4031.5 L1763.2,4049.2" />
<path d="M1815.2,3963.9 L1829.2,3979.8" />
<path d="M2405.6,3163.7 L2419.6,3179.7" />
<path d="M3106.4,2566.0 L3125.2,2549.6" />
<path d="M2976.3,2030.3 L3001.3,2030.2" />
<path d="M2976.3,1866.7 L3001.3,1866.7" />
<path d="M2976.3,1702.0 L3001.3,1702.0" />
<path d="M2976.3,1538.3 L3001.3,1538.3" />
<path d="M2976.3,1374.3 L3001.3,1374.3" />
<path d="M2976.3,1211.3 L3001.3,1211.3" />
<path d="M2976.3,1047.0 L3001.3,1047.0" />
<path d="M2976.3,883.7 L3001.3,883.7" />
<path d="M2976.3,718.7 L3001.3,718.7" />
<path d="M2976.3,556.0 L3001.3,556.0" />
<path d="M2976.3,392.3 L3001.3,392.3" />
<path d="M2976.3,227.7 L3001.3,227.7" />
</g>
<g data-line="2" stroke="#8bc21f" stroke-width="16">
<path d="M1290.9,2704.3 L1291.1,2725.5" />
<path d="M1494.9,2704.3 L1495.1,2725.5" />
<path d="M1698.4,2704.3 L1698.6,2725.5" />
<path d="M4041.3,3104.2 L4026.3,3119.2" />
<path d="M4110.3,3203.4 L4095.2,3218.3" />
<path d="M4417.4,3374.9 L4417.2,3396.1" />
<path d="M4589.1,3374.9 L4588.9,3396.1" />
<path d="M4760.6,3374.9 L4760.4,3396.1" />
<path d="M4933.1,3374.9 L4932.9,3396.1" />
<path d="M5104.7,3374.9 L5104.4,3396.1" />
<path d="M5199.0,3498.7 L5177.8,3498.8" />
<path d="M5199.0,3695.0 L5177.8,3695.0" />
<path d="M5199.0,3892.0 L5177.8,3892.0" />
<path d="M5199.0,4087.0 L5177.8,4087.0" />
<path d="M5199.0,4283.0 L5177.8,4283.0" />
<path d="M701.0,2886.6 L716.7,2900.8" />
</g>
<g data-line="3" stroke="#fdd700" stroke-width="16">
<path d="M2157.8,3879.0 L2157.8,3859.1" />
<path d="M2173.5,3552.0 L2157.2,3568.8" />
<path d="M3372.5,2065.3 L3396.2,2065.3" />
<path d="M3372.5,1817.3 L3350.2,1817.3" />
<path d="M3372.5,1675.0 L3350.2,1675.0" />
<path d="M3372.5,1535.7 L3348.8,1535.7" />
<path d="M3395.8,1398.3 L3381.8,1384.3" />
<path d="M3690.8,1109.7 L3673.8,1092.7" />
<path d="M3826.5,933.3 L3802.5,933.3" />
<path d="M3826.5,796.3 L3802.5,796.3" />
<path d="M3826.5,659.0 L3802.5,659.0" />
<path d="M3826.5,521.7 L3803.8,521.7" />
<path d="M3826.5,385.3 L3803.8,385.3" />
<path d="M3659.2,223.3 L3659.2,243.3" />
<path d="M3453.2,223.3 L3453.2,242.0" />
</g>
<g data-line="4" stroke="#461d85" stroke-width="16">
<path d="M2461.3,3482.0 L2461.3,3460.3" />
<path d="M2965.0,3482.0 L2965.0,3459.5" />
<path d="M3421.5,3482.0 L3421.5,3458.5" />
<path d="M3639.5,3482.0 L3639.5,3455.5" />
<path d="M3941.2,3297.0 L3967.5,3297.0" />
<path d="M3941.2,2491.5 L3969.5,2491.5" />
<path d="M3655.0,2252.1 L3655.0,2273.5" />
</g>
<g data-line="5" stroke="#964b9b" stroke-width="16">
<path d="M1024.5,5330.0 L1590.5,5330.0" />
<path d="M1590.5,4394.7 L1613.8,4394.7" />
<path d="M1590.5,4504.8 L1613.0,4504.8" />
<path d="M1590.5,4686.7 L1613.0,4686.7" />
<path d="M1590.5,4872.7 L1613.0,4872.7" />
<path d="M1590.5,5055.7 L1613.0,5055.7" />
<path d="M1590.5,5239.0 L1613.0,5239.0" />
<path d="M1590.5,5422.7 L1613.0,5422.7" />
<path d="M1590.5,5574.0 L1566.8,5574.0" />
<path d="M1592.5,5668.7 L1570.2,5668.7" />
<path d="M1780.5,5716.0 L1780.5,5693.3" />
<path d="M1958.5,5716.0 L1958.5,5692.0" />
<path d="M2113.8,5716.0 L2113.8,5690.7" />
<path d="M2235.0,5779.1 L2257.5,5779.1" />
<path d="M2235.0,5889.0 L2257.5,5889.0" />
<path d="M1498.5,5330.0 L1498.5,5306.3" />
<path d="M1346.2,5330.0 L1346.2,5308.3" />
<path d="M1193.8,5330.0 L1193.8,5308.3" />
<path d="M1042.8,5330.0 L1042.8,5308.3" />
</g>
<g data-line="6" stroke="#e20169" stroke-width="16">
<path d="M3171.5,4134.0 L3171.5,4154.5" />
<path d="M3357.2,4134.0 L3357.2,4154.5" />
<path d="M3542.5,4126.8 L3542.5,4148.0" />
<path d="M3591.7,4068.2 L3615.5,4068.2" />
<path d="M3623.5,3626.0 L3640.2,3642.7" />
<path d="M3681.3,3568.2 L3699.3,3586.2" />
<path d="M3739.7,3234.6 L3760.3,3234.6" />
<path d="M4120.2,2849.1 L4136.2,2865.0" />
<path d="M4273.1,2693.6 L4290.5,2711.0" />
<path d="M4355.2,2610.1 L4372.5,2627.3" />
<path d="M4516.9,2445.7 L4536.0,2464.9" />
<path d="M4541.7,2366.3 L4566.2,2366.3" />
<path d="M4541.9,2274.3 L4566.2,2274.3" />
<path d="M4542.7,2013.7 L4564.8,2013.7" />
<path d="M4543.0,1903.0 L4564.8,1903.0" />
<path d="M4543.4,1791.0 L4564.8,1791.0" />
<path d="M4664.8,1565.7 L4687.8,1565.7" />
<path d="M4664.8,1446.0 L4687.8,1446.0" />
<path d="M4664.8,1323.7 L4689.5,1323.7" />
</g>
<g data-line="7" stroke="#ec6e00" stroke-width="16">
<path d="M4424.9,3194.9 L4405.9,3175.9" />
<path d="M4119.9,3499.4 L4137.0,3516.5" />
<path d="M4030.6,3588.6 L4048.7,3606.7" />
<path d="M3942.2,3676.8 L3960.3,3695.0" />
<path d="M3443.0,3776.0 L3443.0,3796.8" />
<path d="M2962.2,3776.0 L2962.2,3796.3" />
<path d="M2589.1,2627.5 L2610.5,2627.5" />
<path d="M2589.1,2137.8 L2562.8,2137.8" />
<path d="M2589.1,2020.5 L2562.8,2020.5" />
<path d="M2589.1,1904.5 L2562.8,1904.5" />
<path d="M2588.0,1786.8 L2562.8,1786.8" />
<path d="M2588.0,1670.3 L2562.8,1670.3" />
<path d="M2588.0,1554.5 L2562.8,1554.5" />
<path d="M2483.1,1412.6 L2503.2,1392.5" />
<path d="M2312.8,1318.5 L2312.8,1291.8" />
<path d="M2116.2,1318.5 L2116.2,1291.8" />
<path d="M1738.0,1140.8 L1710.8,1140.8" />
<path d="M1738.0,775.3 L1710.5,775.3" />
<path d="M1738.0,590.8 L1710.2,590.8" />
<path d="M1738.0,406.3 L1711.2,406.3" />
<path d="M1738.0,223.3 L1710.2,223.3" />
</g>
<g data-line="8" stroke="#0095da" stroke-width="16">
<path d="M4157.3,1424.3 L4180.2,1424.3" />
<path d="M4158.2,1528.8 L4181.8,1528.8" />
<path d="M4158.2,1629.7 L4181.7,1629.7" />
<path d="M4158.2,1730.5 L4180.2,1730.5" />
<path d="M4116.2,1791.4 L4129.7,1804.9" />
<path d="M4035.2,1873.7 L4049.2,1887.7" />
<path d="M3834.3,1986.7 L3834.3,1967.3" />
<path d="M3522.6,1986.7 L3522.6,1967.2" />
<path d="M3312.1,2058.1 L3296.2,2042.2" />
<path d="M3249.5,2132.1 L3231.5,2120.2" />
<path d="M3317.5,3626.8 L3340.0,3626.8" />
<path d="M3173.5,4019.7 L3168.0,3999.0" />
<path d="M2981.5,4211.7 L3004.0,4211.7" />
<path d="M2947.5,4301.2 L2970.0,4301.2" />
<path d="M2947.5,4545.8 L2970.0,4545.8" />
<path d="M2947.5,4683.3 L2971.2,4683.3" />
<path d="M2947.5,4820.0 L2972.5,4820.0" />
</g>
<g data-line="9" stroke="#87c9ec" stroke-width="16">
<path d="M5191.3,2508.5 L5191.3,2532.7" />
<path d="M5052.5,2508.5 L5052.5,2531.8" />
<path d="M4915.5,2508.5 L4915.5,2531.8" />
<path d="M4760.3,2606.0 L4774.2,2619.8" />
<path d="M4675.3,2690.4 L4691.4,2706.6" />
<path d="M4589.6,2775.5 L4606.9,2792.8" />
<path d="M4380.2,2983.5 L4398.6,3001.9" />
<path d="M3750.0,3027.0 L3750.0,3052.5" />
<path d="M3522.8,3136.8 L3505.8,3119.8" />
<path d="M2948.2,3242.5 L2948.2,3265.0" />
<path d="M1613.7,3451.3 L1613.7,3474.2" />
<path d="M1458.5,3427.3 L1458.5,3450.3" />
<path d="M1301.3,3451.3 L1301.3,3474.3" />
<path d="M1170.2,3432.7 L1170.2,3454.4" />
<path d="M951.9,3648.9 L968.1,3665.1" />
<path d="M853.6,3745.3 L869.3,3761.0" />
<path d="M754.8,3842.2 L769.8,3857.2" />
<path d="M644.8,4033.3 L666.7,4033.3" />
<path d="M641.6,4227.2 L664.3,4227.2" />
<path d="M614.4,4383.3 L632.3,4401.2" />
<path d="M532.2,4465.7 L549.6,4483.1" />
<path d="M449.8,4548.0 L467.9,4566.1" />
<path d="M367.7,4629.9 L385.6,4647.8" />
</g>
<g data-line="10" stroke="#c6afd3" stroke-width="16">
<path d="M4823.5,1204.8 L4823.5,1180.3" />
<path d="M4528.5,1204.8 L4528.5,1178.5" />
<path d="M4392.0,1204.8 L4392.0,1178.5" />
<path d="M4253.8,1225.8 L4253.8,1199.5" />
<path d="M4032.8,1204.8 L4032.8,1178.5" />
<path d="M3892.3,1342.0 L3918.0,1342.0" />
<path d="M3892.3,1446.0 L3918.0,1446.0" />
<path d="M3892.3,1547.0 L3918.0,1547.0" />
<path d="M3892.3,1648.0 L3918.0,1648.0" />
<path d="M3892.3,1749.1 L3918.0,1749.1" />
<path d="M3741.4,1922.2 L3724.7,1905.5" />
<path d="M3561.1,2102.6 L3581.6,2123.1" />
<path d="M3463.3,2388.8 L3485.8,2388.8" />
<path d="M2419.0,3065.4 L2419.0,3038.3" />
<path d="M2057.0,3000.9 L2037.2,3020.7" />
<path d="M1973.7,2912.5 L1954.7,2931.5" />
<path d="M1776.5,2850.1 L1776.5,2871.3" />
<path d="M1670.5,2826.3 L1670.5,2852.7" />
<path d="M1520.8,2850.1 L1520.8,2824.0" />
<path d="M1308.8,2855.1 L1308.8,2831.0" />
<path d="M1506.9,2971.5 L1523.3,2987.8" />
<path d="M1369.1,3107.9 L1385.2,3124.7" />
<path d="M1181.2,3211.5 L1181.2,3236.3" />
</g>
<g data-line="11" stroke="#861a2a" stroke-width="16">
<path d="M4426.5,4368.0 L4410.8,4384.2" />
<path d="M4518.4,4428.2 L4502.8,4444.4" />
<path d="M4609.7,4538.0 L4594.0,4554.2" />
<path d="M3678.5,4276.5 L3678.5,4298.0" />
<path d="M3489.8,4277.1 L3489.8,4297.3" />
<path d="M3302.5,4274.3 L3302.5,4295.8" />
<path d="M2648.7,4030.5 L2666.5,4012.7" />
<path d="M2509.2,3891.0 L2525.3,3874.8" />
<path d="M2332.8,3636.0 L2350.2,3636.0" />
<path d="M2227.4,2131.4 L2211.0,2147.8" />
<path d="M1859.9,1795.9 L1879.3,1776.5" />
<path d="M1778.4,1682.4 L1797.3,1663.5" />
<path d="M1678.9,1582.9 L1697.5,1564.3" />
<path d="M1580.3,1484.2 L1599.5,1465.0" />
<path d="M1481.4,1385.4 L1500.7,1366.2" />
<path d="M1382.8,1286.7 L1400.8,1267.0" />
<path d="M1286.1,1190.1 L1304.5,1172.0" />
<path d="M1187.6,1091.6 L1205.2,1074.0" />
<path d="M1080.5,758.3 L1102.8,758.3" />
<path d="M1080.5,498.3 L1104.5,498.3" />
<path d="M1080.5,231.7 L1104.8,231.7" />
<path d="M979.9,1085.4 L997.0,1102.5" />
<path d="M891.3,1173.4 L908.2,1190.3" />
<path d="M799.8,1264.3 L817.7,1282.2" />
<path d="M711.0,1352.5 L728.8,1367.7" />
<path d="M607.5,1390.2 L607.5,1413.9" />
<path d="M483.5,1419.0 L483.5,1442.7" />
</g>
<g data-line="12" stroke="#00785f" stroke-width="16">
<path d="M4860.0,2369.0 L4879.0,2369.0" />
<path d="M4860.0,2231.8 L4880.5,2231.8" />
<path d="M4714.2,2159.5 L4714.2,2141.0" />
<path d="M4451.0,2159.5 L4451.0,2137.3" />
<path d="M4236.5,2159.5 L4236.5,2137.5" />
<path d="M4316.5,2180.5 L4316.5,2158.5" />
<path d="M4149.2,2159.5 L4149.2,2180.3" />
<path d="M4062.5,2159.5 L4062.5,2134.3" />
<path d="M3723.8,2359.8 L3741.0,2377.0" />
<path d="M3630.0,2453.5 L3648.5,2472.0" />
<path d="M1670.2,3710.6 L1670.2,3684.0" />
<path d="M1601.2,3750.4 L1584.2,3733.5" />
<path d="M1535.2,3816.4 L1516.9,3798.1" />
<path d="M1360.5,3922.8 L1360.5,3895.5" />
<path d="M1230.0,3922.8 L1230.0,3897.0" />
<path d="M1101.5,3922.8 L1101.5,3898.5" />
</g>
<g data-line="13" stroke="#e899c0" stroke-width="16">
<path d="M4876.2,4029.3 L4876.2,4006.3" />
<path d="M4745.2,4029.3 L4745.2,4006.3" />
<path d="M4615.8,4029.3 L4615.8,4006.3" />
<path d="M3961.2,3930.6 L3961.2,3951.7" />
<path d="M3870.8,3930.6 L3870.8,3906.7" />
<path d="M3780.5,3930.6 L3780.5,3950.9" />
<path d="M3690.8,3930.6 L3690.8,3904.7" />
<path d="M3099.6,3638.6 L3075.5,3638.6" />
<path d="M3099.9,3528.7 L3076.8,3528.7" />
<path d="M3006.2,2855.3 L3027.5,2855.3" />
<path d="M3006.2,2587.3 L3027.8,2587.3" />
<path d="M2760.8,2458.2 L2760.8,2432.3" />
<path d="M1673.0,2383.5 L1656.8,2399.7" />
<path d="M1575.7,2286.1 L1560.7,2301.2" />
<path d="M1389.5,2231.3 L1389.5,2207.7" />
<path d="M1134.2,2231.3 L1134.2,2205.0" />
<path d="M895.2,2231.3 L895.2,2205.0" />
</g>
<g data-line="14" stroke="#626020" stroke-width="16">
<path d="M5159.7,2885.1 L5159.7,2909.0" />
<path d="M5014.5,2885.4 L5014.5,2910.5" />
<path d="M4870.0,2864.6 L4870.0,2887.2" />
<path d="M4724.0,2886.0 L4724.0,2908.3" />
<path d="M4580.5,2886.3 L4580.5,2909.5" />
<path d="M4293.3,2544.3 L4275.0,2526.0" />
<path d="M4125.3,2717.9 L4104.1,2696.6" />
<path d="M2451.6,2592.9 L2433.2,2603.8" />
<path d="M2277.8,2095.2 L2297.5,2075.0" />
<path d="M1802.2,2039.5 L1802.2,2016.8" />
<path d="M1537.0,1990.2 L1551.9,1974.3" />
<path d="M1463.8,1918.7 L1480.7,1903.0" />
<path d="M1333.2,1854.0 L1333.2,1830.5" />
<path d="M1148.4,1854.0 L1148.4,1827.8" />
<path d="M961.2,1854.0 L961.2,1827.8" />
<path d="M773.5,1854.0 L773.5,1827.8" />
</g>
<g data-line="15" stroke="#cab08d" stroke-width="16">
<path d="M1942.6,1032.2 L1959.9,1014.9" />
<path d="M2016.1,1390.0 L2041.2,1390.0" />
<path d="M2016.1,1491.0 L2041.2,1491.0" />
<path d="M2016.1,1593.9 L2041.2,1593.9" />
<path d="M2016.8,1695.1 L2041.2,1695.1" />
<path d="M2016.8,1798.0 L2041.2,1798.0" />
<path d="M1920.2,2213.6 L1900.4,2193.7" />
<path d="M1880.0,2540.0 L1854.4,2540.0" />
<path d="M1880.5,2801.0 L1902.2,2801.0" />
<path d="M1768.5,3182.7 L1793.8,3182.7" />
<path d="M1768.5,3304.3 L1793.8,3304.3" />
<path d="M2089.4,4044.6 L2110.5,4030.8" />
<path d="M2102.5,4155.5 L2125.2,4155.5" />
<path d="M2102.5,4274.0 L2125.2,4274.0" />
<path d="M2102.5,4575.5 L2125.2,4575.5" />
<path d="M2102.5,4717.0 L2125.2,4717.0" />
<path d="M2102.5,4856.5 L2125.2,4856.5" />
<path d="M2102.5,4995.8 L2126.2,4995.8" />
<path d="M2102.5,5136.5 L2126.2,5136.5" />
<path d="M2102.5,5277.0 L2127.8,5277.0" />
<path d="M2102.5,5416.8 L2125.2,5416.8" />
</g>
<g data-line="16" stroke="#98d1c0" stroke-width="16">
<path d="M4350.5,4530.3 L4373.2,4530.3" />
<path d="M4350.5,4792.5 L4371.5,4792.5" />
<path d="M4350.5,5054.0 L4371.2,5054.0" />
<path d="M4481.2,5469.8 L4481.2,5446.0" />
<path d="M4652.5,5446.0 L4652.5,5421.0" />
<path d="M4816.5,5446.0 L4816.5,5421.0" />
<path d="M4908.3,5490.9 L4892.0,5507.3" />
<path d="M5002.1,5584.9 L4984.4,5602.6" />
<path d="M5096.7,5679.8 L5079.0,5697.5" />
<path d="M5191.4,5774.8 L5175.2,5791.0" />
</g>
<g data-line="17" stroke="#bc7970" stroke-width="16">
<path d="M682.7,2866.1 L664.9,2848.3" />
<path d="M615.1,2934.0 L597.1,2916.0" />
<path d="M560.3,2995.2 L537.2,2986.2" />
<path d="M550.2,3068.0 L569.8,3068.0" />
<path d="M550.2,3187.7 L571.7,3187.7" />
<path d="M550.2,3308.3 L571.7,3308.3" />
<path d="M550.2,3428.7 L569.8,3428.7" />
<path d="M550.2,3548.7 L569.8,3548.7" />
<path d="M550.2,3670.3 L569.8,3670.3" />
<path d="M521.5,3775.4 L538.8,3792.7" />
<path d="M436.6,3869.1 L453.5,3886.0" />
</g>
<g data-line="18" stroke="#c4984f" stroke-width="16">
<path d="M3519.3,1432.7 L3543.8,1432.7" />
<path d="M3562.8,1572.4 L3581.5,1553.7" />
<path d="M3674.0,1683.5 L3692.2,1665.3" />
<path d="M3885.1,1894.7 L3904.0,1875.9" />
<path d="M4069.3,2269.9 L4052.2,2287.4" />
<path d="M4145.8,2346.4 L4128.8,2363.3" />
<path d="M4261.5,3166.7 L4286.2,3166.7" />
<path d="M4163.5,3808.7 L4189.2,3808.7" />
<path d="M4163.5,3920.3 L4189.2,3920.3" />
<path d="M4066.4,4461.0 L4039.5,4461.0" />
<path d="M4066.4,4628.0 L4041.5,4628.0" />
<path d="M4066.4,4794.0 L4041.5,4794.0" />
<path d="M4066.4,4960.0 C4063.2,4959.7 4041.5,4960.0 4041.5,4960.0" />
<path d="M4066.4,5127.3 L4041.5,5127.3" />
<path d="M4066.4,5294.0 L4043.2,5294.0" />
<path d="M4066.4,5458.0 L4043.2,5458.0" />
</g>
<g data-line="Pujiang" stroke="#b6b6b6" stroke-width="16">
<path d="M3124.8,5006.7 L3144.2,4986.0" />
<path d="M3144.2,5118.7 L3170.8,5118.7" />
<path d="M3144.2,5253.0 L3170.8,5253.0" />
<path d="M3144.2,5380.7 L3170.8,5380.7" />
<path d="M3036.2,5477.4 L3036.2,5453.7" />
</g>
<!-- manual-station synthetic ticks -->
<g data-line="11" stroke="#861a2a" stroke-width="16">
<line x1="3872.4" y1="4283.0" x2="3871.6" y2="4305.0" data-manual-tick="11-40" />
</g>
<g data-line="17" stroke="#bc7970" stroke-width="16">
<line x1="368.2" y1="3979.4" x2="351.8" y2="3964.6" data-manual-tick="17-14" />
</g>
<g data-line="18" stroke="#c4984f" stroke-width="16">
<line x1="4043.0" y1="4961.0" x2="4065.0" y2="4961.0" data-manual-tick="18-26" />
<line x1="3393.6" y1="1174.2" x2="3380.4" y2="1191.8" data-manual-tick="18-27" />
<line x1="3248.4" y1="1092.8" x2="3261.6" y2="1075.2" data-manual-tick="18-28" />
<line x1="3116.4" y1="993.8" x2="3129.6" y2="976.2" data-manual-tick="18-29" />
<line x1="2850.4" y1="793.8" x2="2863.6" y2="776.2" data-manual-tick="18-31" />
</g>
</g>
</svg>